<svg version="1.1" id="Layer_1" xmlns="http://www.w3.org/2000/svg" xmlns:xlink="http://www.w3.org/1999/xlink" x="0px" y="0px"
	 width="100%" viewBox="0 0 225 225" enable-background="new 0 0 225 225" xml:space="preserve">
<path fill="#0A0A0A" opacity="1.000000" stroke="none" 
	d="
M131.000000,226.000000 
	C87.333336,226.000000 44.166672,226.000000 1.000006,226.000000 
	C1.000004,151.000000 1.000004,76.000015 1.000002,1.000016 
	C75.999992,1.000011 150.999985,1.000011 225.999969,1.000005 
	C225.999985,75.999985 225.999985,150.999969 226.000000,225.999969 
	C194.500000,226.000000 163.000000,226.000000 131.000000,226.000000 
M120.138275,190.008209 
	C120.138275,190.008209 120.353958,189.802963 121.284760,189.873688 
	C122.522736,189.756958 123.760704,189.640244 125.336617,190.128830 
	C130.091537,191.553894 135.379227,189.966141 138.603439,186.095764 
	C139.062210,186.026657 139.520981,185.957550 140.518127,186.402969 
	C143.401886,185.715118 146.494812,185.465118 149.110291,184.215668 
	C151.700974,182.978043 153.692184,180.886368 156.385834,184.037155 
	C156.980972,184.733307 158.860641,184.766159 159.933502,184.425751 
	C160.430176,184.268173 160.683456,182.452393 160.578522,181.436798 
	C159.972183,175.569031 160.407791,175.145386 165.763733,176.531326 
	C166.391754,176.693832 167.198715,176.164764 167.337753,176.124725 
	C166.825455,174.172379 166.408020,172.581482 166.715210,171.018585 
	C167.748886,171.457367 168.754929,171.988083 169.823929,172.309326 
	C170.911346,172.636093 172.060791,172.756546 173.183060,172.967346 
	C172.941208,171.964600 172.770920,170.937286 172.437820,169.965836 
	C172.088226,168.946304 171.582550,167.980301 171.015045,166.696762 
	C173.088623,167.280121 174.371277,167.640961 175.653915,168.001816 
	C175.782455,166.653305 175.953323,165.307037 176.025421,163.955521 
	C176.077896,162.971664 175.999954,161.980881 176.416901,160.478668 
	C179.221146,156.269333 182.925674,152.398666 184.660507,147.787048 
	C189.820969,134.069199 193.252060,119.900368 192.095673,104.331291 
	C193.686768,103.277672 195.277863,102.224045 197.751709,100.585869 
	C198.687271,94.198296 198.404800,93.673531 191.861725,91.158485 
	C192.418518,87.051376 193.069824,83.016785 193.446564,78.956718 
	C193.547653,77.867348 192.812210,76.700340 192.460800,75.568977 
	C191.653595,76.380440 190.905014,77.263191 190.025360,77.986542 
	C188.728592,79.052849 187.338486,80.005608 185.589218,80.747368 
	C185.339325,80.543900 185.140991,80.298706 184.996689,79.091095 
	C184.997452,77.093758 185.011276,75.096329 184.996613,73.099106 
	C184.948898,66.602028 183.795792,65.360306 177.983841,65.027199 
	C176.694168,61.767414 175.478088,58.693619 174.230240,55.539532 
	C175.101868,55.021072 176.417007,54.238811 176.784302,54.020336 
	C175.523026,51.890301 174.375824,49.952942 172.501724,46.787968 
	C171.441971,50.362354 170.845795,52.373158 170.176132,54.631844 
	C168.550888,52.510880 167.288086,49.380409 165.924805,49.336006 
	C159.429977,49.124470 160.896393,44.854382 160.680588,40.984520 
	C160.591431,39.385551 159.442963,37.456306 158.166229,36.455574 
	C157.371017,35.832279 154.443832,36.289722 154.204926,36.919228 
	C153.611176,38.483822 154.009628,40.424942 154.009628,41.710106 
	C151.897812,41.710106 149.387619,42.276741 147.293625,41.584457 
	C143.663422,40.384293 138.879089,41.143040 137.157028,36.067165 
	C135.631149,31.569571 132.672318,30.641899 128.872070,33.592960 
	C126.467209,35.460438 124.542610,36.344975 121.978722,34.092098 
	C121.311043,33.505413 120.133011,33.259655 119.190842,33.263065 
	C111.394302,33.291286 103.596504,33.348057 95.802406,33.534489 
	C91.049454,33.648182 86.302345,34.005959 81.243507,34.270252 
	C81.768250,39.104252 79.059822,41.208134 74.145477,41.917549 
	C71.888588,42.243343 69.083038,43.610752 67.871300,45.411095 
	C64.466492,50.469799 60.599171,50.413677 55.481464,48.482414 
	C49.856766,46.359829 47.144176,48.972031 48.202339,54.851231 
	C48.496174,56.483788 49.402748,58.118027 49.271137,59.688034 
	C49.089626,61.853348 48.765491,64.553894 47.394611,65.879509 
	C46.484222,66.759842 43.472569,66.044113 41.691185,65.325096 
	C38.124115,63.885326 36.374821,64.675247 36.059250,68.613647 
	C35.935116,70.162888 36.215912,71.744576 36.334583,73.673569 
	C38.121166,72.840347 39.284306,72.297890 40.856064,71.564857 
	C40.856064,75.568741 40.856064,78.977432 40.856064,82.630905 
	C38.568584,82.008698 37.215637,81.640694 35.946785,81.295563 
	C34.944229,84.602631 33.301224,87.563721 33.326912,90.510262 
	C33.366051,94.998970 30.932444,99.975357 34.887287,104.740891 
	C34.705036,107.011185 32.002617,109.903763 36.647713,111.557762 
	C36.441383,112.041496 36.235054,112.525230 35.604965,113.049866 
	C35.373856,113.174370 35.142746,113.298874 34.911636,113.423378 
	C35.231823,113.617126 35.552010,113.810867 36.004292,114.659004 
	C36.007915,115.104019 36.011543,115.549026 35.476475,116.312592 
	C34.660145,118.216949 33.843815,120.121300 32.137310,122.017494 
	C26.533957,121.594833 20.930601,121.172173 14.851606,120.713638 
	C15.925234,124.070648 16.442673,126.268410 20.454010,126.317665 
	C24.005184,126.361267 27.624138,128.001404 31.026327,129.393372 
	C32.302162,129.915375 33.051121,131.725128 33.693638,133.562454 
	C33.140457,134.668747 32.587276,135.775024 31.891254,137.166992 
	C33.755047,137.771652 35.094097,138.206085 36.742779,138.740952 
	C34.273067,143.742142 32.785488,148.520081 36.500378,153.365601 
	C37.108570,154.158875 36.743923,155.641235 37.028305,156.754150 
	C37.371067,158.095535 37.926727,159.382523 38.390228,160.693054 
	C39.494907,160.138428 40.561253,159.480042 41.713535,159.054245 
	C43.317841,158.461411 45.525986,157.160614 46.500729,157.756821 
	C47.951191,158.643982 49.632702,161.154297 49.331070,162.573196 
	C47.653214,170.466064 54.378586,173.662369 58.658733,175.241180 
	C63.795906,177.136093 65.719849,179.078552 65.150017,184.055862 
	C66.830765,184.303406 68.167442,184.500275 69.468277,184.691879 
	C69.290375,186.708511 69.145187,188.354248 68.262207,190.028244 
	C67.273499,190.877991 66.284782,191.727753 65.296066,192.577499 
	C65.750885,192.962524 66.205704,193.347534 66.660522,193.732559 
	C67.434074,192.652710 68.214195,191.577438 68.971390,190.486237 
	C69.050400,190.372375 68.993721,190.164337 69.807777,189.999939 
	C72.204002,189.332275 74.600220,188.664612 77.143684,188.734299 
	C78.110687,189.470596 79.092545,190.851120 80.042084,190.829239 
	C83.725464,190.744354 87.491280,189.600479 90.666855,192.549973 
	C91.443024,191.694061 92.219193,190.838150 93.793312,189.991226 
	C97.577713,190.300110 101.362106,190.608978 105.774117,190.968307 
	C106.188400,191.024368 106.602684,191.080444 107.349785,191.471603 
	C107.895691,191.362717 108.441605,191.253830 109.776985,191.025543 
	C110.838776,190.979416 111.900558,190.933304 113.157845,191.573181 
	C116.113930,194.288849 118.124382,192.446899 120.138275,190.008209 
z"/>
<path fill="#0D0C0A" opacity="1.000000" stroke="none" 
	d="
M35.002953,103.996338 
	C30.932444,99.975357 33.366051,94.998970 33.326912,90.510262 
	C33.301224,87.563721 34.944229,84.602631 35.946785,81.295563 
	C37.215637,81.640694 38.568584,82.008698 40.856064,82.630905 
	C40.856064,78.977432 40.856064,75.568741 40.856064,71.564857 
	C39.284306,72.297890 38.121166,72.840347 36.334583,73.673569 
	C36.215912,71.744576 35.935116,70.162888 36.059250,68.613647 
	C36.374821,64.675247 38.124115,63.885326 41.691185,65.325096 
	C43.472569,66.044113 46.484222,66.759842 47.394611,65.879509 
	C48.765491,64.553894 49.089626,61.853348 49.271137,59.688034 
	C49.402748,58.118027 48.496174,56.483788 48.202339,54.851231 
	C47.144176,48.972031 49.856766,46.359829 55.481464,48.482414 
	C60.599171,50.413677 64.466492,50.469799 67.871300,45.411095 
	C69.083038,43.610752 71.888588,42.243343 74.145477,41.917549 
	C79.059822,41.208134 81.768250,39.104252 81.243507,34.270252 
	C86.302345,34.005959 91.049454,33.648182 95.802406,33.534489 
	C103.596504,33.348057 111.394302,33.291286 119.190842,33.263065 
	C120.133011,33.259655 121.311043,33.505413 121.978722,34.092098 
	C124.542610,36.344975 126.467209,35.460438 128.872070,33.592960 
	C132.672318,30.641899 135.631149,31.569571 137.157028,36.067165 
	C138.879089,41.143040 143.663422,40.384293 147.293625,41.584457 
	C149.387619,42.276741 151.897812,41.710106 154.009628,41.710106 
	C154.009628,40.424942 153.611176,38.483822 154.204926,36.919228 
	C154.443832,36.289722 157.371017,35.832279 158.166229,36.455574 
	C159.442963,37.456306 160.591431,39.385551 160.680588,40.984520 
	C160.896393,44.854382 159.429977,49.124470 165.924805,49.336006 
	C167.288086,49.380409 168.550888,52.510880 170.176132,54.631844 
	C170.845795,52.373158 171.441971,50.362354 172.501724,46.787968 
	C174.375824,49.952942 175.523026,51.890301 176.784302,54.020336 
	C176.417007,54.238811 175.101868,55.021072 174.230240,55.539532 
	C175.478088,58.693619 176.694168,61.767414 177.983841,65.027199 
	C183.795792,65.360306 184.948898,66.602028 184.996613,73.099106 
	C185.011276,75.096329 184.997452,77.093758 184.637970,79.552399 
	C183.802521,80.023354 183.325790,80.032997 182.625763,79.792099 
	C179.637924,75.303589 176.873413,71.065620 173.969543,66.525566 
	C169.229034,61.788021 164.627899,57.352562 159.837814,52.637318 
	C156.714569,50.573986 154.455093,46.990833 149.633026,49.515869 
	C152.727356,51.735096 155.821686,53.954323 159.075623,56.461273 
	C163.084076,60.536846 166.932907,64.324699 170.911591,68.433838 
	C174.060684,74.049629 177.079895,79.344131 180.154907,84.887619 
	C180.406097,85.408875 180.601486,85.681152 180.937637,86.258896 
	C181.213943,86.991570 181.349472,87.418793 181.072754,88.006683 
	C178.310684,88.510193 175.960876,88.853043 173.211060,89.196053 
	C166.161758,88.790169 159.512451,88.384125 152.441315,87.926590 
	C146.677704,88.626053 141.335938,89.377007 135.667664,90.050705 
	C135.062973,89.638000 134.476151,89.140114 134.554062,88.992104 
	C135.383118,87.417007 136.317642,85.897423 137.495224,84.150528 
	C139.737000,80.666977 141.706696,77.395485 143.903976,73.901695 
	C145.645493,71.065926 147.159424,68.452446 149.106064,65.092033 
	C145.888489,65.092033 143.928421,65.092033 141.557251,65.012817 
	C139.757599,64.988617 138.369049,65.043640 136.739868,65.023087 
	C136.336563,64.990067 136.173889,65.032623 135.683258,64.976715 
	C134.907120,64.935806 134.458908,64.993378 133.637329,64.969635 
	C132.507736,64.948738 131.751511,65.009155 130.600159,64.984970 
	C129.136322,64.957047 128.067642,65.013718 126.588776,64.981781 
	C124.787811,64.952209 123.397011,65.011238 121.564819,64.972038 
	C118.417801,64.937500 115.712173,65.001190 112.592300,64.967743 
	C110.767204,64.937592 109.356369,65.004570 107.558563,64.977936 
	C106.113976,64.954155 105.056343,65.023994 103.550339,64.993393 
	C99.745422,64.939751 96.388893,64.986542 92.632980,64.932404 
	C87.107605,64.831482 81.981613,64.831482 75.666000,64.831482 
	C74.785629,71.354218 73.749763,79.028999 72.713898,86.703789 
	C73.271873,86.821526 73.829842,86.939255 74.387817,87.056992 
	C75.984123,83.768372 77.580429,80.479759 79.381012,77.142487 
	C79.585289,77.093834 80.000336,77.029625 80.222290,77.273300 
	C81.341637,77.816544 82.639374,78.656212 83.075241,78.333138 
	C88.116272,74.596527 93.753365,74.588531 99.676598,74.798958 
	C102.090706,74.884727 104.573006,73.050667 107.330421,72.007904 
	C109.431816,71.857964 111.227074,71.790199 113.460899,71.795731 
	C116.269241,71.945129 118.639023,72.021248 121.057564,72.413986 
	C122.066513,73.818184 123.026688,74.905769 123.996872,76.211731 
	C124.006889,76.430107 123.955452,76.864273 123.639442,77.015762 
	C119.072624,84.067101 114.821815,90.966942 110.335518,98.043304 
	C109.399841,99.147339 108.699661,100.074852 107.632050,101.015099 
	C105.255753,102.781464 103.246910,104.535088 101.168900,106.204330 
	C101.099739,106.119942 101.273460,106.251999 100.847855,106.194000 
	C93.386566,105.771500 89.287971,110.580124 84.538383,114.952515 
	C83.040871,115.247162 81.915108,115.459053 80.832214,115.805069 
	C72.563599,118.447205 64.307434,121.128365 56.037830,123.767403 
	C53.703945,124.512207 51.338291,125.157463 48.554840,125.911339 
	C46.086899,125.931602 44.051334,125.888916 42.011169,125.422577 
	C42.336353,119.746422 42.546234,114.482826 43.030914,109.244652 
	C43.481228,104.377892 44.040901,99.505661 44.893642,94.696342 
	C45.658459,90.382896 46.887638,86.151794 47.954895,81.536621 
	C52.121796,75.174789 56.245762,69.160690 60.645470,62.944313 
	C65.084160,59.402756 69.247116,56.063484 73.847755,52.783905 
	C76.715614,52.074852 79.217941,51.479267 81.561539,50.502754 
	C87.132149,48.181637 91.830528,43.624260 99.015976,46.649208 
	C102.884682,48.277863 107.750580,47.537781 112.467888,47.888889 
	C112.281158,46.047230 112.143402,44.688499 112.068764,43.952351 
	C116.000153,42.961617 119.496078,42.080620 123.410797,41.157482 
	C125.884750,41.431194 127.933952,41.889835 129.998734,41.976219 
	C130.621307,42.002266 131.287125,40.994465 131.933136,40.460251 
	C131.452789,39.914230 131.016113,38.941189 130.485489,38.886921 
	C123.684235,38.191357 116.869530,37.627155 109.612869,36.943756 
	C103.426949,37.898899 97.686394,38.939926 91.886765,39.959057 
	C91.827682,39.937160 91.737923,40.025612 91.513817,40.064491 
	C91.289711,40.103367 91.119888,40.525391 90.815437,40.717003 
	C86.975014,42.144054 83.439049,43.379498 79.534897,44.710789 
	C70.092842,48.393539 63.385715,55.083363 56.487247,62.061073 
	C47.218964,72.304245 41.348652,84.022911 37.494621,97.079895 
	C36.426159,99.442261 35.714554,101.719299 35.002953,103.996338 
M147.909317,45.694939 
	C145.079498,43.466908 142.356232,40.786797 137.530029,43.343296 
	C141.251740,45.368191 143.240967,50.103920 147.909317,45.694939 
M53.477295,52.849323 
	C53.168243,52.907936 52.859188,52.966549 52.550137,53.025162 
	C52.856770,53.095497 53.163403,53.165829 53.477295,52.849323 
z"/>
<path fill="#0D0B08" opacity="1.000000" stroke="none" 
	d="
M76.996437,187.996948 
	C74.600220,188.664612 72.204002,189.332275 69.403893,189.999969 
	C69.145187,188.354248 69.290375,186.708511 69.468277,184.691879 
	C68.167442,184.500275 66.830765,184.303406 65.150017,184.055862 
	C65.719849,179.078552 63.795906,177.136093 58.658733,175.241180 
	C54.378586,173.662369 47.653214,170.466064 49.331070,162.573196 
	C49.632702,161.154297 47.951191,158.643982 46.500729,157.756821 
	C45.525986,157.160614 43.317841,158.461411 41.713535,159.054245 
	C40.561253,159.480042 39.494907,160.138428 38.390228,160.693054 
	C37.926727,159.382523 37.371067,158.095535 37.028305,156.754150 
	C36.743923,155.641235 37.108570,154.158875 36.500378,153.365601 
	C32.785488,148.520081 34.273067,143.742142 36.742779,138.740952 
	C35.094097,138.206085 33.755047,137.771652 31.891254,137.166992 
	C32.587276,135.775024 33.140457,134.668747 34.091820,133.257507 
	C34.489998,132.952545 34.940655,132.955170 35.325417,132.969818 
	C36.722763,132.949997 37.735348,132.915512 38.819633,132.926666 
	C38.891335,132.972290 39.053768,133.022385 39.025612,133.406387 
	C40.916756,137.923676 42.836052,142.056946 44.755344,146.190231 
	C45.323189,145.978043 45.891029,145.765854 46.458870,145.553665 
	C45.894024,142.928680 45.329174,140.303711 44.829201,137.264465 
	C45.608955,134.858124 46.323833,132.866028 47.433289,130.938110 
	C48.889206,131.082962 49.950546,131.163635 51.264359,131.428345 
	C52.676727,131.460968 53.836628,131.309555 55.327572,131.091507 
	C56.105309,131.064072 56.551994,131.103287 57.125626,131.476730 
	C60.385590,133.833954 63.032776,133.567596 65.335754,130.017181 
	C66.768478,129.615128 67.879616,129.359756 68.999954,129.415024 
	C69.013687,130.139587 69.018227,130.553497 69.024063,131.301941 
	C69.349472,132.425461 69.673569,133.214478 69.909897,134.352386 
	C65.890503,136.246307 61.958881,137.791321 57.290054,139.626038 
	C60.417114,140.473022 63.215321,141.230927 65.765976,142.279770 
	C65.537216,147.099380 61.087955,151.194534 64.366150,156.883652 
	C65.454742,155.205917 66.300056,154.106461 66.918549,152.891525 
	C67.512016,151.725739 67.870277,150.440231 68.330582,149.210861 
	C70.599777,150.728409 72.237526,151.823669 73.948624,152.983093 
	C74.021980,153.047256 74.186943,153.151077 74.106354,153.492645 
	C72.992928,155.529160 72.032852,157.274078 70.910904,158.907822 
	C69.032188,161.643555 70.161293,162.767197 73.060822,163.391479 
	C73.753403,164.455338 74.382027,165.224533 74.786667,166.220306 
	C72.953033,167.541458 69.034164,167.336365 71.977829,171.332489 
	C71.931740,171.877625 71.905266,172.094955 71.506821,172.226700 
	C67.827484,169.730560 64.520134,167.320023 61.091972,164.590973 
	C58.316883,161.180344 55.662605,158.088211 52.933189,154.652893 
	C50.925774,151.728165 48.993504,149.146606 47.061234,146.565048 
	C46.367615,147.026550 45.674000,147.488068 44.980381,147.949570 
	C46.858139,151.022766 48.735897,154.095978 50.716728,157.504532 
	C53.193645,160.596237 55.567478,163.352570 58.043076,166.427505 
	C65.754028,172.252182 73.363220,177.758270 80.970840,183.554520 
	C80.978699,184.231537 80.988129,184.618393 80.658066,185.054749 
	C79.211189,186.068497 78.103813,187.032715 76.996437,187.996948 
M41.316650,146.137314 
	C40.291210,146.234253 39.265770,146.331192 38.240326,146.428116 
	C38.618248,147.407654 38.996170,148.387177 39.374092,149.366714 
	C40.134888,148.495819 40.895687,147.624924 41.316650,146.137314 
z"/>
<path fill="#180A04" opacity="1.000000" stroke="none" 
	d="
M173.611069,89.195885 
	C175.960876,88.853043 178.310684,88.510193 181.284775,88.290161 
	C183.443542,88.948181 184.978012,89.483383 186.797760,90.143616 
	C189.945831,93.790588 192.113510,97.502136 191.083008,102.364510 
	C190.917145,103.147148 191.665833,104.123619 191.991760,105.010483 
	C193.252060,119.900368 189.820969,134.069199 184.660507,147.787048 
	C182.925674,152.398666 179.221146,156.269333 175.874313,160.738892 
	C174.898865,161.002213 174.466019,161.005310 174.152008,160.694687 
	C175.351196,158.669693 176.431503,156.958405 177.746002,155.008301 
	C189.520554,136.985519 192.912308,105.677238 186.016769,98.697609 
	C186.016769,103.774361 186.264542,108.200562 185.954193,112.587296 
	C185.564102,118.101357 184.717209,123.583092 184.048080,128.605453 
	C183.811951,121.566971 183.709183,114.995346 183.337067,108.439003 
	C183.100983,104.279388 182.464111,100.142525 181.997787,95.704117 
	C181.981445,95.218590 181.974304,95.024406 182.110718,94.578339 
	C182.379501,93.845154 182.661423,92.961334 182.607483,92.940338 
	C180.082993,91.957680 177.529297,91.050034 174.742004,89.989319 
	C174.207047,89.628532 173.909058,89.412209 173.611069,89.195885 
z"/>
<path fill="#D7C38A" opacity="1.000000" stroke="none" 
	d="
M37.851479,96.994568 
	C41.348652,84.022911 47.218964,72.304245 56.835495,62.221310 
	C58.433174,62.523136 59.401447,62.834862 60.369728,63.146591 
	C56.245762,69.160690 52.121796,75.174789 47.697514,81.778214 
	C40.795403,95.084114 39.056030,108.669495 39.778858,123.161476 
	C38.556976,122.551941 37.499008,121.733826 37.059681,120.662109 
	C36.463490,119.207756 36.340893,117.559265 36.015167,115.994041 
	C36.011543,115.549026 36.007915,115.104019 36.009949,114.088013 
	C36.019981,113.347672 36.024357,113.178314 36.028725,113.008965 
	C36.235054,112.525230 36.441383,112.041496 36.669254,110.903595 
	C36.719509,109.157776 36.748219,108.066109 36.876587,106.656700 
	C36.942200,105.899071 36.908157,105.459190 36.946400,104.647392 
	C37.013130,103.517769 37.007576,102.760056 37.261890,101.799599 
	C37.629395,100.739799 37.737030,99.882751 37.923981,98.690826 
	C37.952686,97.902153 37.902081,97.448364 37.851479,96.994568 
z"/>
<path fill="#0D0C0A" opacity="1.000000" stroke="none" 
	d="
M192.043716,104.670883 
	C191.665833,104.123619 190.917145,103.147148 191.083008,102.364510 
	C192.113510,97.502136 189.945831,93.790588 186.651840,89.771591 
	C185.941574,88.246880 185.662506,87.219215 185.673309,86.001068 
	C185.971481,84.209297 185.979813,82.608017 185.988129,81.006737 
	C187.338486,80.005608 188.728592,79.052849 190.025360,77.986542 
	C190.905014,77.263191 191.653595,76.380440 192.460800,75.568977 
	C192.812210,76.700340 193.547653,77.867348 193.446564,78.956718 
	C193.069824,83.016785 192.418518,87.051376 191.861725,91.158485 
	C198.404800,93.673531 198.687271,94.198296 197.751709,100.585869 
	C195.277863,102.224045 193.686768,103.277672 192.043716,104.670883 
z"/>
<path fill="#180C06" opacity="1.000000" stroke="none" 
	d="
M35.745819,116.153320 
	C36.340893,117.559265 36.463490,119.207756 37.059681,120.662109 
	C37.499008,121.733826 38.556976,122.551941 39.778858,123.161476 
	C39.056030,108.669495 40.795403,95.084114 47.654579,82.125954 
	C46.887638,86.151794 45.658459,90.382896 44.893642,94.696342 
	C44.040901,99.505661 43.481228,104.377892 43.030914,109.244652 
	C42.546234,114.482826 42.336353,119.746422 41.683495,125.491119 
	C40.919102,126.033981 40.477795,126.084633 39.643139,126.075630 
	C37.745327,126.325218 36.240864,126.634468 34.465805,126.850952 
	C33.805969,125.180679 33.416729,123.603172 33.027489,122.025658 
	C33.843815,120.121300 34.660145,118.216949 35.745819,116.153320 
z"/>
<path fill="#1D1207" opacity="1.000000" stroke="none" 
	d="
M32.582397,122.021576 
	C33.416729,123.603172 33.805969,125.180679 34.555599,127.173431 
	C35.285172,128.366562 35.654354,129.144455 35.970932,130.242554 
	C35.592438,131.360245 35.266544,132.157700 34.940651,132.955170 
	C34.940655,132.955170 34.489998,132.952545 34.265144,132.950165 
	C33.051121,131.725128 32.302162,129.915375 31.026327,129.393372 
	C27.624138,128.001404 24.005184,126.361267 20.454010,126.317665 
	C16.442673,126.268410 15.925234,124.070648 14.851606,120.713638 
	C20.930601,121.172173 26.533957,121.594833 32.582397,122.021576 
z"/>
<path fill="#151009" opacity="1.000000" stroke="none" 
	d="
M165.990570,170.990570 
	C166.408020,172.581482 166.825455,174.172379 167.337753,176.124725 
	C167.198715,176.164764 166.391754,176.693832 165.763733,176.531326 
	C160.407791,175.145386 159.972183,175.569031 160.578522,181.436798 
	C160.683456,182.452393 160.430176,184.268173 159.933502,184.425751 
	C158.860641,184.766159 156.980972,184.733307 156.385834,184.037155 
	C153.692184,180.886368 151.700974,182.978043 149.110291,184.215668 
	C146.494812,185.465118 143.401886,185.715118 140.466125,185.900177 
	C141.954910,184.624863 143.495682,183.852325 145.394455,183.057251 
	C148.030350,181.709045 150.308228,180.383362 152.892700,179.056366 
	C154.502747,178.103363 155.806198,177.151718 157.442780,176.112335 
	C160.265747,174.098434 162.755585,172.172287 165.431702,170.432251 
	C165.742172,170.742416 165.866379,170.866501 165.990570,170.990570 
z"/>
<path fill="#D0B87A" opacity="1.000000" stroke="none" 
	d="
M112.962349,190.887177 
	C111.900558,190.933304 110.838776,190.979416 109.056564,191.012787 
	C107.896416,191.045517 107.456688,191.091019 107.016968,191.136505 
	C106.602684,191.080444 106.188400,191.024368 105.280792,190.597763 
	C99.853203,189.103271 94.918938,187.979324 90.010826,186.529602 
	C90.396805,185.452606 90.756622,184.701401 91.540421,183.958405 
	C98.652451,184.818222 105.340500,185.669846 112.111977,186.822617 
	C112.481628,188.121780 112.767860,189.119781 113.034843,190.310577 
	C113.015594,190.503372 112.962349,190.887177 112.962349,190.887177 
z"/>
<path fill="#151009" opacity="1.000000" stroke="none" 
	d="
M137.949997,186.341370 
	C135.379227,189.966141 130.091537,191.553894 125.560524,189.678070 
	C128.621567,188.236542 132.567657,189.524719 133.987946,185.241302 
	C132.563126,185.051208 131.278595,184.879822 130.097809,184.395569 
	C133.959778,179.963852 138.510941,178.066132 143.956955,179.438690 
	C142.052994,180.517548 140.328400,181.330414 138.554825,182.016678 
	C135.694092,183.123596 136.002197,184.599884 137.949997,186.341370 
z"/>
<path fill="#151009" opacity="1.000000" stroke="none" 
	d="
M174.033157,161.008392 
	C174.466019,161.005310 174.898865,161.002213 175.655945,160.996155 
	C175.999954,161.980881 176.077896,162.971664 176.025421,163.955521 
	C175.953323,165.307037 175.782455,166.653305 175.653915,168.001816 
	C174.371277,167.640961 173.088623,167.280121 171.015045,166.696762 
	C171.582550,167.980301 172.088226,168.946304 172.437820,169.965836 
	C172.770920,170.937286 172.941208,171.964600 173.183060,172.967346 
	C172.060791,172.756546 170.911346,172.636093 169.823929,172.309326 
	C168.754929,171.988083 167.748886,171.457367 166.352890,171.004578 
	C165.866379,170.866501 165.742172,170.742416 165.656097,170.192627 
	C168.473846,166.847412 171.253494,163.927902 174.033157,161.008392 
z"/>
<path fill="#0C0A0F" opacity="1.000000" stroke="none" 
	d="
M77.070061,188.365631 
	C78.103813,187.032715 79.211189,186.068497 80.897980,185.312073 
	C85.316711,187.007355 89.156036,188.494797 92.995361,189.982239 
	C92.219193,190.838150 91.443024,191.694061 90.666855,192.549973 
	C87.491280,189.600479 83.725464,190.744354 80.042084,190.829239 
	C79.092545,190.851120 78.110687,189.470596 77.070061,188.365631 
z"/>
<path fill="#1D1207" opacity="1.000000" stroke="none" 
	d="
M93.394333,189.986725 
	C89.156036,188.494797 85.316711,187.007355 81.237473,185.262573 
	C80.988129,184.618393 80.978699,184.231537 81.211060,183.550293 
	C81.452850,183.255905 81.932983,183.252151 82.164833,183.502930 
	C84.926010,184.787613 87.455338,185.821503 89.984665,186.855408 
	C94.918938,187.979324 99.853203,189.103271 104.966995,190.572540 
	C101.362106,190.608978 97.577713,190.300110 93.394333,189.986725 
z"/>
<path fill="#E1DDD4" opacity="1.000000" stroke="none" 
	d="
M129.994049,184.708435 
	C131.278595,184.879822 132.563126,185.051208 133.987946,185.241302 
	C132.567657,189.524719 128.621567,188.236542 125.391556,189.375412 
	C123.760704,189.640244 122.522736,189.756958 120.970520,189.407288 
	C120.756386,188.035461 120.856499,187.130035 121.294136,186.142273 
	C122.085938,185.979111 122.540215,185.898285 123.313362,185.860870 
	C124.421700,185.631683 125.211159,185.359116 126.402702,185.112701 
	C127.867867,184.995392 128.930954,184.851913 129.994049,184.708435 
z"/>
<path fill="#C8B690" opacity="1.000000" stroke="none" 
	d="
M138.276718,186.218567 
	C136.002197,184.599884 135.694092,183.123596 138.554825,182.016678 
	C140.328400,181.330414 142.052994,180.517548 143.934067,179.427505 
	C144.068558,179.093506 144.095032,179.136002 144.414429,179.102051 
	C145.161865,179.081131 145.589905,179.094147 145.956024,179.444153 
	C145.608215,180.880676 145.322327,181.980225 145.036438,183.079773 
	C143.495682,183.852325 141.954910,184.624863 140.196945,185.642914 
	C139.520981,185.957550 139.062210,186.026657 138.276718,186.218567 
z"/>
<path fill="#D6CBB9" opacity="1.000000" stroke="none" 
	d="
M120.956604,186.224609 
	C120.856499,187.130035 120.756386,188.035461 120.505119,189.371918 
	C120.353958,189.802963 120.138275,190.008209 119.655334,190.009293 
	C117.132957,190.046188 115.093529,190.082001 113.054092,190.117798 
	C112.767860,189.119781 112.481628,188.121780 112.561264,186.779480 
	C115.634514,186.244766 118.341888,186.054337 121.079590,185.967819 
	C121.109909,186.071732 120.956596,186.224609 120.956604,186.224609 
z"/>
<path fill="#180C06" opacity="1.000000" stroke="none" 
	d="
M37.494621,97.079895 
	C37.902081,97.448364 37.952686,97.902153 37.720425,98.936111 
	C37.292377,100.344963 37.147198,101.173660 37.002022,102.002350 
	C37.007576,102.760056 37.013130,103.517769 36.775852,104.806778 
	C36.614323,105.883545 36.695625,106.428993 36.776928,106.974449 
	C36.748219,108.066109 36.719509,109.157776 36.565880,110.641296 
	C32.002617,109.903763 34.705036,107.011185 34.945122,104.368614 
	C35.714554,101.719299 36.426159,99.442261 37.494621,97.079895 
z"/>
<path fill="#151009" opacity="1.000000" stroke="none" 
	d="
M113.034843,190.310577 
	C115.093529,190.082001 117.132957,190.046188 119.605942,190.077866 
	C118.124382,192.446899 116.113930,194.288849 113.060097,191.230179 
	C112.962349,190.887177 113.015594,190.503372 113.034843,190.310577 
z"/>
<path fill="#0D0B08" opacity="1.000000" stroke="none" 
	d="
M68.631104,190.014130 
	C68.993721,190.164337 69.050400,190.372375 68.971390,190.486237 
	C68.214195,191.577438 67.434074,192.652710 66.660522,193.732559 
	C66.205704,193.347534 65.750885,192.962524 65.296066,192.577499 
	C66.284782,191.727753 67.273499,190.877991 68.631104,190.014130 
z"/>
<path fill="#180A04" opacity="1.000000" stroke="none" 
	d="
M185.788666,80.877052 
	C185.979813,82.608017 185.971481,84.209297 185.482483,85.741714 
	C184.284210,83.796112 183.566650,81.919380 182.849091,80.042648 
	C183.325790,80.032997 183.802521,80.023354 184.636749,80.012756 
	C185.140991,80.298706 185.339325,80.543900 185.788666,80.877052 
z"/>
<path fill="#151009" opacity="1.000000" stroke="none" 
	d="
M107.183380,191.304047 
	C107.456688,191.091019 107.896416,191.045517 108.661827,191.072479 
	C108.441605,191.253830 107.895691,191.362717 107.183380,191.304047 
z"/>
<path fill="#180C06" opacity="1.000000" stroke="none" 
	d="
M35.816849,113.029419 
	C36.024357,113.178314 36.019981,113.347672 35.943897,113.760818 
	C35.552010,113.810867 35.231823,113.617126 34.911636,113.423370 
	C35.142746,113.298874 35.373856,113.174370 35.816849,113.029419 
z"/>
<path fill="#E1DDD4" opacity="1.000000" stroke="none" 
	d="
M110.571014,97.866791 
	C114.821815,90.966942 119.072624,84.067101 123.721657,77.434937 
	C124.741280,85.441788 125.362679,93.180954 125.724213,101.148422 
	C121.663353,103.325409 117.862366,105.274094 114.034134,106.804642 
	C114.364868,102.940353 116.378227,98.826607 110.571014,97.866791 
z"/>
<path fill="#100804" opacity="1.000000" stroke="none" 
	d="
M122.992012,41.199623 
	C119.496078,42.080620 116.000153,42.961617 112.068764,43.952351 
	C112.143402,44.688499 112.281158,46.047230 112.467888,47.888889 
	C107.750580,47.537781 102.884682,48.277863 99.015976,46.649208 
	C91.830528,43.624260 87.132149,48.181637 81.561539,50.502754 
	C79.217941,51.479267 76.715614,52.074852 74.070236,52.518509 
	C75.549370,51.062981 77.243713,49.932552 79.291016,48.740341 
	C83.781578,46.829990 87.919182,44.981422 92.476585,43.117889 
	C99.322151,42.185226 105.747902,41.267521 112.611313,40.432541 
	C116.363312,40.743385 119.677658,40.971504 122.992012,41.199623 
z"/>
<path fill="#CFC2A8" opacity="1.000000" stroke="none" 
	d="
M130.995300,65.069580 
	C131.751511,65.009155 132.507736,64.948738 133.637527,65.433060 
	C134.707703,72.171425 131.870956,78.982368 137.223175,84.362579 
	C136.317642,85.897423 135.383118,87.417007 134.554062,88.992104 
	C134.476151,89.140114 135.062973,89.638000 135.687317,90.442703 
	C135.715179,92.985046 135.396851,95.058128 134.833435,97.346970 
	C133.751389,97.760399 132.914444,97.958076 131.895340,97.936508 
	C131.181702,97.354828 130.199203,97.006378 130.187485,96.627853 
	C130.046722,92.082550 130.049820,87.532791 130.010834,82.738403 
	C130.006332,82.492599 129.997406,82.001007 130.004303,81.750656 
	C130.012787,81.333359 130.014374,81.166412 130.262360,80.695892 
	C130.670929,75.284752 130.833115,70.177162 130.995300,65.069580 
z"/>
<path fill="#DAD1C1" opacity="1.000000" stroke="none" 
	d="
M130.015976,80.999458 
	C130.014374,81.166412 130.012787,81.333359 129.875122,81.852005 
	C129.566193,82.536804 129.658295,82.796974 130.015350,82.984200 
	C130.049820,87.532791 130.046722,92.082550 130.187485,96.627853 
	C130.199203,97.006378 131.181702,97.354828 131.818710,98.123024 
	C131.924255,98.528793 131.750763,98.892670 131.408905,98.921906 
	C129.372711,99.607460 127.678391,100.263794 125.984070,100.920120 
	C125.362679,93.180954 124.741280,85.441788 124.037666,77.283447 
	C123.955452,76.864273 124.006889,76.430107 124.255745,76.010338 
	C125.148804,74.724846 125.793007,73.859123 126.469421,72.966560 
	C126.501625,72.939720 126.582626,72.918053 126.794754,73.127052 
	C127.336617,73.555595 127.666344,73.775139 127.998032,73.997345 
	C128.000000,74.000000 128.005493,74.003967 127.948357,74.303078 
	C126.012505,77.593834 126.829132,79.690262 130.015976,80.999458 
z"/>
<path fill="#C8B690" opacity="1.000000" stroke="none" 
	d="
M137.495239,84.150528 
	C131.870956,78.982368 134.707703,72.171425 134.010910,65.514374 
	C134.458908,64.993378 134.907120,64.935806 135.787369,65.088249 
	C136.219421,65.298256 136.628021,65.372520 136.628021,65.372520 
	C136.628021,65.372520 136.980499,65.098663 136.980499,65.098663 
	C138.369049,65.043640 139.757599,64.988617 141.319275,65.274841 
	C140.394226,68.831558 139.296036,72.047050 138.129196,75.463547 
	C140.743866,74.832146 142.210129,74.478065 143.676407,74.123993 
	C141.706696,77.395485 139.737000,80.666977 137.495239,84.150528 
z"/>
<path fill="#E0D298" opacity="1.000000" stroke="none" 
	d="
M78.938049,48.802116 
	C77.243713,49.932552 75.549370,51.062981 73.632545,52.458809 
	C69.247116,56.063484 65.084160,59.402756 60.645466,62.944313 
	C59.401447,62.834862 58.433174,62.523136 57.116650,62.051170 
	C63.385715,55.083363 70.092842,48.393539 79.418747,44.979057 
	C79.426544,46.368359 79.182297,47.585236 78.938049,48.802116 
z"/>
<path fill="#B9A579" opacity="1.000000" stroke="none" 
	d="
M135.078537,97.131218 
	C135.396851,95.058128 135.715179,92.985046 136.013824,90.519958 
	C141.335938,89.377007 146.677704,88.626053 152.468658,88.316803 
	C152.922119,90.061615 152.926422,91.364708 152.531464,92.747360 
	C148.397034,93.821350 144.661896,94.815796 140.597855,95.837776 
	C139.841568,95.967278 139.414185,96.069244 138.699860,96.158096 
	C138.125412,96.380203 137.837891,96.615433 137.394745,96.835251 
	C137.239120,96.819839 136.990952,97.010216 136.670120,97.001389 
	C135.925705,97.038788 135.502121,97.084999 135.078537,97.131218 
z"/>
<path fill="#8B7243" opacity="1.000000" stroke="none" 
	d="
M182.625763,79.792099 
	C183.566650,81.919380 184.284210,83.796112 185.192612,85.932205 
	C185.662506,87.219215 185.941574,88.246880 186.366577,89.646561 
	C184.978012,89.483383 183.443542,88.948181 181.697021,88.129494 
	C181.349472,87.418793 181.213943,86.991570 180.901276,86.004623 
	C180.515808,85.176140 180.307449,84.907387 180.099106,84.638634 
	C177.079895,79.344131 174.060684,74.049629 171.282455,68.399811 
	C172.385269,67.638885 173.247086,67.233269 174.108902,66.827652 
	C176.873413,71.065620 179.637924,75.303589 182.625763,79.792099 
z"/>
<path fill="#E0CFB9" opacity="1.000000" stroke="none" 
	d="
M110.335518,98.043304 
	C116.378227,98.826607 114.364868,102.940353 114.009659,106.975945 
	C114.012428,107.565384 113.934685,107.902924 113.592972,107.949539 
	C111.221909,109.021629 109.192566,110.047104 106.866867,110.845230 
	C104.280495,109.696022 101.990479,108.774170 99.851036,107.603966 
	C100.425560,106.987740 100.849518,106.619873 101.273468,106.251999 
	C101.273460,106.251999 101.099739,106.119942 101.505096,106.123886 
	C103.940125,104.419334 105.969810,102.710854 107.999489,101.002365 
	C108.699661,100.074852 109.399841,99.147339 110.335518,98.043304 
z"/>
<path fill="#A3874B" opacity="1.000000" stroke="none" 
	d="
M152.930725,92.667816 
	C152.926422,91.364708 152.922119,90.061615 152.890488,88.368301 
	C159.512451,88.384125 166.161758,88.790169 173.211060,89.196045 
	C173.909058,89.412209 174.207047,89.628532 174.695923,90.301315 
	C174.581741,91.540932 174.276657,92.324089 173.590088,93.037231 
	C172.447845,92.827934 171.687088,92.688644 170.714813,92.418205 
	C170.173401,92.254944 169.843491,92.222839 169.080338,92.218201 
	C163.408295,92.386383 158.169510,92.527100 152.930725,92.667816 
z"/>
<path fill="#DCC07E" opacity="1.000000" stroke="none" 
	d="
M79.176735,77.191147 
	C77.580429,80.479759 75.984123,83.768372 74.387817,87.056992 
	C73.829842,86.939255 73.271873,86.821526 72.713898,86.703789 
	C73.749763,79.028999 74.785629,71.354218 75.666000,64.831482 
	C81.981613,64.831482 87.107605,64.831482 92.625046,65.163742 
	C93.016487,65.496010 93.008430,65.958870 92.541397,65.971237 
	C88.286194,65.995811 84.497841,65.989952 80.709877,66.025169 
	C76.727280,66.062195 76.545631,69.301544 76.163300,71.945351 
	C75.870781,73.968155 74.969704,76.933266 78.965393,76.957062 
	C79.035744,77.035179 79.176735,77.191147 79.176735,77.191147 
z"/>
<path fill="#180C06" opacity="1.000000" stroke="none" 
	d="
M48.987209,125.848389 
	C51.338291,125.157463 53.703945,124.512207 56.037830,123.767403 
	C64.307434,121.128365 72.563599,118.447205 80.832214,115.805069 
	C81.915108,115.459053 83.040871,115.247162 84.618393,115.041916 
	C85.090019,115.110695 85.247772,115.289391 85.031036,115.550400 
	C82.256432,117.130081 79.698563,118.448746 76.780045,119.818024 
	C75.818695,120.206467 75.217987,120.544304 74.437996,120.864716 
	C74.258705,120.847282 73.979019,121.074394 73.699440,121.071823 
	C73.143631,121.289803 72.867401,121.510353 72.563293,121.695114 
	C72.535423,121.659317 72.445244,121.649216 72.280670,121.641769 
	C72.116096,121.634331 71.956345,121.922493 71.557373,121.930359 
	C63.767998,123.241608 56.377605,124.544998 48.987209,125.848389 
z"/>
<path fill="#D0B87A" opacity="1.000000" stroke="none" 
	d="
M112.173660,40.349815 
	C105.747902,41.267521 99.322151,42.185226 92.392960,42.658890 
	C91.632980,41.651695 91.376434,41.088543 91.119888,40.525391 
	C91.119888,40.525391 91.289711,40.103367 91.575447,40.198471 
	C91.861183,40.293571 92.083229,40.347870 92.083229,40.347870 
	C92.083229,40.347870 91.945839,39.980957 91.945839,39.980957 
	C97.686394,38.939926 103.426949,37.898899 109.765976,37.153481 
	C110.967529,38.415997 111.570595,39.382904 112.173660,40.349815 
z"/>
<path fill="#957E40" opacity="1.000000" stroke="none" 
	d="
M173.969543,66.525566 
	C173.247086,67.233269 172.385269,67.638885 171.152588,68.078522 
	C166.932907,64.324699 163.084076,60.536846 159.219299,56.145638 
	C159.477829,54.667217 159.752289,53.792160 160.026733,52.917099 
	C164.627899,57.352562 169.229034,61.788021 173.969543,66.525566 
z"/>
<path fill="#E0D9CA" opacity="1.000000" stroke="none" 
	d="
M112.611313,40.432541 
	C111.570595,39.382904 110.967529,38.415997 110.211349,37.239365 
	C116.869530,37.627155 123.684235,38.191357 130.485489,38.886921 
	C131.016113,38.941189 131.452789,39.914230 131.933136,40.460251 
	C131.287125,40.994465 130.621307,42.002266 129.998734,41.976219 
	C127.933952,41.889835 125.884750,41.431194 123.410797,41.157482 
	C119.677658,40.971504 116.363312,40.743385 112.611313,40.432541 
z"/>
<path fill="#100804" opacity="1.000000" stroke="none" 
	d="
M107.024284,72.090073 
	C104.573006,73.050667 102.090706,74.884727 99.676598,74.798958 
	C93.753365,74.588531 88.116272,74.596527 83.075241,78.333138 
	C82.639374,78.656212 81.341637,77.816544 80.219948,77.255539 
	C79.995644,76.994095 80.030212,76.996864 80.211411,76.902802 
	C80.623268,76.656586 80.815247,76.465553 81.273979,76.055099 
	C83.374535,74.842896 85.169655,73.811234 87.298111,72.824364 
	C88.078186,72.834602 88.524925,72.800056 89.303795,72.878571 
	C90.098427,72.946198 90.560928,72.900757 91.441116,72.915741 
	C95.248543,72.555252 98.638290,72.134346 102.393631,71.787254 
	C103.499329,71.807198 104.239433,71.753334 105.315392,71.792084 
	C106.108932,71.953156 106.566605,72.021614 107.024284,72.090073 
z"/>
<path fill="#D6CBB9" opacity="1.000000" stroke="none" 
	d="
M130.262360,80.695892 
	C126.829132,79.690262 126.012505,77.593834 128.043945,74.257172 
	C128.196671,73.912148 128.210266,73.656067 128.210266,73.656067 
	C128.210266,73.656067 127.996071,73.994690 127.996071,73.994690 
	C127.666344,73.775139 127.336617,73.555595 126.894165,72.936249 
	C126.781441,72.536453 127.020325,72.178902 127.122856,72.043076 
	C127.401947,71.583046 127.350815,71.291222 126.829796,70.790627 
	C126.724716,68.723122 126.861839,66.896759 126.998955,65.070389 
	C128.067642,65.013718 129.136322,64.957047 130.600159,64.984978 
	C130.833115,70.177162 130.670929,75.284752 130.262360,80.695892 
z"/>
<path fill="#B9A579" opacity="1.000000" stroke="none" 
	d="
M143.903976,73.901695 
	C142.210129,74.478065 140.743866,74.832146 138.129196,75.463547 
	C139.296036,72.047050 140.394226,68.831558 141.730392,65.354050 
	C143.928421,65.092033 145.888489,65.092033 149.106064,65.092033 
	C147.159424,68.452446 145.645493,71.065926 143.903976,73.901695 
z"/>
<path fill="#E1DDD4" opacity="1.000000" stroke="none" 
	d="
M121.008797,72.097366 
	C118.639023,72.021248 116.269241,71.945129 113.456528,71.380875 
	C113.011238,68.950111 113.008896,67.007492 113.006554,65.064873 
	C115.712173,65.001190 118.417801,64.937500 121.615608,65.307938 
	C122.073845,67.728882 122.039894,69.715706 121.759277,71.807846 
	C121.344673,71.974564 121.176735,72.035965 121.008797,72.097366 
z"/>
<path fill="#E1C295" opacity="1.000000" stroke="none" 
	d="
M102.028038,71.713448 
	C98.638290,72.134346 95.248543,72.555252 91.432526,72.610542 
	C91.005211,71.838173 91.004158,71.431419 91.354141,70.966301 
	C93.454224,69.805969 95.203285,68.703995 96.952347,67.602028 
	C96.745140,67.207649 96.537941,66.813263 96.330742,66.418877 
	C95.223305,66.265541 94.115868,66.112206 93.008430,65.958870 
	C93.008430,65.958870 93.016487,65.496010 93.024422,65.264671 
	C96.388893,64.986542 99.745422,64.939751 103.368057,65.292480 
	C103.098785,67.699150 102.563408,69.706299 102.028038,71.713448 
z"/>
<path fill="#E7DA9D" opacity="1.000000" stroke="none" 
	d="
M48.554840,125.911331 
	C56.377605,124.544998 63.767998,123.241608 71.389923,122.242218 
	C64.406403,127.194176 56.152622,127.517174 48.008148,127.894012 
	C45.383671,128.015442 42.695511,126.760544 40.036484,126.135284 
	C40.477795,126.084633 40.919102,126.033981 41.688087,125.914780 
	C44.051334,125.888916 46.086899,125.931602 48.554840,125.911331 
z"/>
<path fill="#E5CB87" opacity="1.000000" stroke="none" 
	d="
M90.815437,40.717003 
	C91.376434,41.088543 91.632980,41.651695 91.973160,42.673847 
	C87.919182,44.981422 83.781578,46.829990 79.291016,48.740341 
	C79.182297,47.585236 79.426544,46.368359 79.786934,44.883209 
	C83.439049,43.379498 86.975014,42.144054 90.815437,40.717003 
z"/>
<path fill="#180C06" opacity="1.000000" stroke="none" 
	d="
M100.847862,106.194008 
	C100.849518,106.619873 100.425560,106.987740 99.512985,107.658592 
	C96.685745,109.374878 94.347130,110.788185 91.678864,112.264755 
	C89.315392,113.315147 87.281578,114.302269 85.247772,115.289391 
	C85.247772,115.289391 85.090019,115.110695 85.010010,115.021286 
	C89.287971,110.580124 93.386566,105.771500 100.847862,106.194008 
z"/>
<path fill="#A3874B" opacity="1.000000" stroke="none" 
	d="
M159.837799,52.637314 
	C159.752289,53.792160 159.477829,54.667217 159.059692,55.857910 
	C155.821686,53.954323 152.727356,51.735096 149.633026,49.515869 
	C154.455093,46.990833 156.714569,50.573986 159.837799,52.637314 
z"/>
<path fill="#E0CFB9" opacity="1.000000" stroke="none" 
	d="
M112.592300,64.967743 
	C113.008896,67.007492 113.011238,68.950111 113.017960,71.307587 
	C111.227074,71.790199 109.431816,71.857964 107.330421,72.007904 
	C106.566605,72.021614 106.108932,71.953156 105.438599,71.475800 
	C106.132469,69.068459 107.039001,67.070000 107.945534,65.071548 
	C109.356369,65.004570 110.767204,64.937592 112.592300,64.967743 
z"/>
<path fill="#B9A579" opacity="1.000000" stroke="none" 
	d="
M147.893829,46.070724 
	C143.240967,50.103920 141.251740,45.368191 137.530029,43.343296 
	C142.356232,40.786797 145.079498,43.466908 147.893829,46.070724 
z"/>
<path fill="#E7DA9D" opacity="1.000000" stroke="none" 
	d="
M107.558563,64.977936 
	C107.039001,67.070000 106.132469,69.068459 105.102737,71.383194 
	C104.239433,71.753334 103.499329,71.807198 102.393631,71.787254 
	C102.563408,69.706299 103.098785,67.699150 103.816437,65.392914 
	C105.056343,65.023994 106.113976,64.954155 107.558563,64.977936 
z"/>
<path fill="#E0D9CA" opacity="1.000000" stroke="none" 
	d="
M122.005943,71.702522 
	C122.039894,69.715706 122.073845,67.728882 122.057007,65.406166 
	C123.397011,65.011238 124.787811,64.952209 126.588776,64.981789 
	C126.861839,66.896759 126.724716,68.723122 126.810120,71.076790 
	C127.028542,71.795700 127.024437,71.987305 127.020325,72.178902 
	C127.020325,72.178902 126.781441,72.536453 126.682037,72.727249 
	C126.582626,72.918053 126.501625,72.939720 126.305405,72.580246 
	C124.741440,72.048019 123.373695,71.875275 122.005943,71.702522 
z"/>
<path fill="#180C06" opacity="1.000000" stroke="none" 
	d="
M107.632050,101.015099 
	C105.969810,102.710854 103.940125,104.419334 101.574249,106.208267 
	C103.246910,104.535088 105.255753,102.781464 107.632050,101.015099 
z"/>
<path fill="#100804" opacity="1.000000" stroke="none" 
	d="
M121.759277,71.807846 
	C123.373695,71.875275 124.741440,72.048019 126.273201,72.607086 
	C125.793007,73.859123 125.148804,74.724846 124.245728,75.791962 
	C123.026688,74.905769 122.066513,73.818184 121.057564,72.413986 
	C121.176735,72.035965 121.344673,71.974564 121.759277,71.807846 
z"/>
<path fill="#DCC07E" opacity="1.000000" stroke="none" 
	d="
M86.964775,72.779579 
	C85.169655,73.811234 83.374535,74.842896 81.038666,76.048309 
	C80.193512,76.390686 80.037613,76.648956 80.030212,76.996864 
	C80.030212,76.996864 79.995644,76.994095 79.997986,77.011856 
	C80.000336,77.029625 79.585289,77.093834 79.381012,77.142487 
	C79.176735,77.191147 79.035744,77.035179 79.073578,76.640633 
	C81.156929,73.794106 82.965668,70.805710 86.964775,72.779579 
z"/>
<path fill="#0A0A0A" opacity="1.000000" stroke="none" 
	d="
M53.473663,53.042744 
	C53.163403,53.165829 52.856770,53.095497 52.550137,53.025162 
	C52.859188,52.966549 53.168243,52.907936 53.473663,53.042744 
z"/>
<path fill="#180A04" opacity="1.000000" stroke="none" 
	d="
M180.154907,84.887619 
	C180.307449,84.907387 180.515808,85.176140 180.760498,85.699158 
	C180.601486,85.681152 180.406097,85.408875 180.154907,84.887619 
z"/>
<path fill="#E5CB87" opacity="1.000000" stroke="none" 
	d="
M91.886765,39.959061 
	C91.945839,39.980957 92.083229,40.347870 92.083229,40.347870 
	C92.083229,40.347870 91.861183,40.293571 91.799553,40.159592 
	C91.737923,40.025612 91.827682,39.937160 91.886765,39.959061 
z"/>
<path fill="#CFC2A8" opacity="1.000000" stroke="none" 
	d="
M136.739868,65.023087 
	C136.980499,65.098663 136.628021,65.372520 136.628021,65.372520 
	C136.628021,65.372520 136.219421,65.298256 136.115311,65.186722 
	C136.173889,65.032623 136.336563,64.990067 136.739868,65.023087 
z"/>
<path fill="#151009" opacity="1.000000" stroke="none" 
	d="
M107.163223,111.072578 
	C109.192566,110.047104 111.221909,109.021629 113.831100,108.198105 
	C115.794479,109.221687 117.178009,110.043327 118.517586,110.838875 
	C123.307152,105.686089 128.188782,104.288368 135.407104,105.929306 
	C138.868423,105.579292 141.928726,105.295296 145.172256,105.242722 
	C145.355499,107.284561 145.355499,109.094971 145.355499,111.295799 
	C132.852432,109.526054 125.763260,118.337669 116.656219,123.148415 
	C116.005409,122.220146 115.358864,121.297951 114.747696,120.076637 
	C115.295837,118.964546 115.808586,118.151573 116.681580,117.265442 
	C120.639687,115.280350 124.237549,113.368423 127.835419,111.456497 
	C127.436012,110.702957 127.036606,109.949425 126.637199,109.195892 
	C122.759811,111.081268 118.882431,112.966644 114.656662,114.942917 
	C111.603096,116.705414 108.897911,118.377007 105.850578,120.110107 
	C104.626945,121.043930 103.745461,121.916245 102.537521,122.897034 
	C100.691620,123.959801 99.172173,124.914093 97.337868,125.899033 
	C95.990250,126.613586 94.957481,127.297501 93.672760,128.011810 
	C93.186798,128.269226 92.952797,128.496246 92.386574,128.813293 
	C89.686249,130.244507 87.318146,131.585663 84.575211,132.936951 
	C79.254181,134.778793 74.308006,136.610519 69.361824,138.442245 
	C69.516777,139.066910 69.671722,139.691559 69.826668,140.316208 
	C74.524734,139.189880 79.222801,138.063553 84.150055,137.083847 
	C84.633743,137.486526 84.888252,137.742569 85.012146,138.323349 
	C83.192482,140.926056 81.503433,143.204041 79.556046,145.692291 
	C78.775215,146.868500 78.252716,147.834442 77.797150,148.836166 
	C77.864075,148.871948 77.772179,148.751129 77.521851,148.893433 
	C77.006355,149.544952 76.741188,150.054184 76.476288,150.572510 
	C76.476562,150.581619 76.459656,150.577820 76.188843,150.718277 
	C75.341003,151.622849 74.763969,152.386963 74.186943,153.151077 
	C74.186943,153.151077 74.021980,153.047256 73.984848,152.593185 
	C73.475342,147.666351 69.482307,142.558029 66.013527,141.988831 
	C63.215321,141.230927 60.417114,140.473022 57.290054,139.626038 
	C61.958881,137.791321 65.890503,136.246307 70.356384,134.352783 
	C72.530251,134.000198 74.175186,134.079727 75.808449,133.975861 
	C80.168228,133.698639 84.599731,129.798950 84.970673,125.609070 
	C84.902206,124.733772 84.849274,124.234436 84.806198,123.777710 
	C84.816048,123.820320 84.729126,123.810577 84.973030,123.765648 
	C85.536247,123.600548 85.793846,123.400803 86.134979,123.000076 
	C86.280212,122.878677 86.658699,122.887375 86.910980,122.829063 
	C87.436775,122.566071 87.710297,122.361397 88.138992,122.032280 
	C88.294159,121.907837 88.690964,121.879532 88.939606,121.807083 
	C89.453941,121.518661 89.719620,121.302689 90.270813,120.921677 
	C92.404144,119.648842 94.251976,118.541054 96.410217,117.347389 
	C97.235336,116.901955 97.750031,116.542404 98.190369,116.169014 
	C98.116020,116.155174 98.110466,116.306320 98.368790,116.259087 
	C98.891251,115.996323 99.155388,115.780792 99.453079,115.578026 
	C99.486633,115.590797 99.557343,115.603249 99.887329,115.507919 
	C102.532616,113.965927 104.847916,112.519249 107.163223,111.072578 
M76.462914,145.493835 
	C76.462914,145.493835 76.515701,145.471085 76.462914,145.493835 
z"/>
<path fill="#0B090B" opacity="1.000000" stroke="none" 
	d="
M71.878799,172.312302 
	C71.905266,172.094955 71.931740,171.877625 72.339935,171.387665 
	C74.149834,171.408798 75.577988,171.702576 77.432732,172.001862 
	C83.231735,172.407715 88.604156,172.808060 93.976578,173.208405 
	C94.018547,172.602005 94.060516,171.995621 94.102486,171.389221 
	C90.351181,171.103775 86.599869,170.818344 82.848564,170.532913 
	C82.886032,170.020477 82.923500,169.508057 82.960960,168.995621 
	C85.709183,168.995621 88.525581,169.376297 91.188370,168.899323 
	C94.524940,168.301682 97.735420,167.000153 101.361191,166.000580 
	C102.817856,165.666229 103.913658,165.333725 105.421738,165.001373 
	C108.183113,165.525497 110.532204,166.049469 112.881302,166.573441 
	C112.802551,166.978790 112.723801,167.384155 112.645050,167.789520 
	C109.390442,168.955917 106.135834,170.122314 102.539581,171.411163 
	C105.450668,175.692368 106.729156,179.979660 111.959808,179.471252 
	C112.252693,179.442780 112.648308,180.471146 112.542999,181.006622 
	C105.484924,181.260849 99.150444,180.738617 93.957962,175.823517 
	C93.157944,175.066238 91.259422,174.717575 90.209335,175.104309 
	C85.211670,176.944778 80.409065,178.732895 76.036530,173.751526 
	C75.658478,173.320816 74.136749,173.893997 73.050377,173.743805 
	C72.595924,173.095245 72.237358,172.703781 71.878799,172.312302 
z"/>
<path fill="#EFD686" opacity="1.000000" stroke="none" 
	d="
M39.643139,126.075630 
	C42.695511,126.760544 45.383671,128.015442 48.008148,127.894012 
	C56.152622,127.517174 64.406403,127.194176 71.788895,122.234360 
	C71.956345,121.922493 72.116096,121.634331 72.507034,121.949051 
	C74.587990,123.464523 76.278015,124.665276 77.665436,126.069778 
	C74.572144,127.217140 71.781448,128.160751 68.990761,129.104370 
	C67.879616,129.359756 66.768478,129.615128 64.935081,129.986023 
	C61.808113,130.448532 59.403400,130.795517 56.998684,131.142517 
	C56.551994,131.103287 56.105309,131.064072 54.931618,131.023468 
	C53.140369,131.096146 52.076126,131.170227 51.011883,131.244308 
	C49.950546,131.163635 48.889206,131.082962 47.262115,130.641113 
	C43.796818,130.237106 40.897270,130.194275 37.672325,130.084808 
	C36.905796,129.986252 36.464664,129.954300 36.023537,129.922348 
	C35.654354,129.144455 35.285172,128.366562 34.826195,127.266190 
	C36.240864,126.634468 37.745327,126.325218 39.643139,126.075630 
z"/>
<path fill="#E7DA9D" opacity="1.000000" stroke="none" 
	d="
M71.506821,172.226700 
	C72.237358,172.703781 72.595924,173.095245 73.080536,174.087234 
	C75.793518,176.168747 78.380447,177.649734 80.989410,179.485687 
	C81.318611,180.977814 81.625793,182.114975 81.932983,183.252151 
	C81.932983,183.252151 81.452850,183.255905 81.212631,183.260132 
	C73.363220,177.758270 65.754028,172.252182 58.297539,166.172974 
	C59.371086,165.369720 60.291935,165.139603 61.212784,164.909485 
	C64.520134,167.320023 67.827484,169.730560 71.506821,172.226700 
z"/>
<path fill="#100804" opacity="1.000000" stroke="none" 
	d="
M105.009460,165.001221 
	C103.913658,165.333725 102.817856,165.666229 100.948837,165.996124 
	C97.886581,165.796188 95.601006,165.524338 93.307747,165.417847 
	C89.207214,165.227432 85.102043,165.136688 80.613571,165.004517 
	C78.489098,165.334427 76.749870,165.664078 75.010651,165.993744 
	C74.382027,165.224533 73.753403,164.455338 73.404205,163.313385 
	C75.788918,162.884369 77.894211,162.828110 80.262466,162.847229 
	C80.700272,162.870392 80.875099,162.818192 81.485329,162.827637 
	C84.265259,162.849075 86.609779,162.808884 89.408890,162.866119 
	C93.564911,162.920898 97.266335,162.878235 101.367172,162.897705 
	C102.838036,162.915115 103.909492,162.870377 105.238205,162.913086 
	C105.667252,163.057953 105.839035,163.115402 105.881058,163.399307 
	C105.504021,164.084244 105.256744,164.542725 105.009460,165.001221 
z"/>
<path fill="#0C0A0F" opacity="1.000000" stroke="none" 
	d="
M65.765976,142.279770 
	C69.482307,142.558029 73.475342,147.666351 73.911491,152.529022 
	C72.237526,151.823669 70.599777,150.728409 68.330582,149.210861 
	C67.870277,150.440231 67.512016,151.725739 66.918549,152.891525 
	C66.300056,154.106461 65.454742,155.205917 64.366150,156.883652 
	C61.087955,151.194534 65.537216,147.099380 65.765976,142.279770 
z"/>
<path fill="#0C0A0F" opacity="1.000000" stroke="none" 
	d="
M84.986198,125.985046 
	C84.599731,129.798950 80.168228,133.698639 75.808449,133.975861 
	C74.175186,134.079727 72.530251,134.000198 70.444153,134.003876 
	C69.673569,133.214478 69.349472,132.425461 69.418228,131.304474 
	C73.151154,129.259354 76.491211,127.546227 79.841087,125.841438 
	C79.850906,125.849785 79.843117,125.861771 80.271156,125.908150 
	C82.128197,125.964699 83.557198,125.974876 84.986198,125.985046 
M81.495308,128.532333 
	C81.495308,128.532333 81.475197,128.483963 81.495308,128.532333 
z"/>
<path fill="#E0D298" opacity="1.000000" stroke="none" 
	d="
M79.999496,162.771851 
	C77.894211,162.828110 75.788918,162.884369 73.340256,163.018738 
	C70.161293,162.767197 69.032188,161.643555 70.910904,158.907822 
	C72.032852,157.274078 72.992928,155.529160 74.106354,153.492645 
	C74.763969,152.386963 75.341003,151.622849 76.268555,151.106552 
	C75.967682,154.009918 75.316277,156.665466 74.642769,159.411133 
	C76.713280,160.252777 78.853172,161.122635 80.802856,162.090057 
	C80.356483,162.328018 80.152092,162.522766 79.999496,162.771851 
z"/>
<path fill="#E0D298" opacity="1.000000" stroke="none" 
	d="
M61.091976,164.590973 
	C60.291935,165.139603 59.371086,165.369720 58.195778,165.854370 
	C55.567478,163.352570 53.193645,160.596237 50.995121,157.335800 
	C51.783066,156.219833 52.395699,155.607956 53.008331,154.996078 
	C55.662605,158.088211 58.316883,161.180344 61.091976,164.590973 
z"/>
<path fill="#D7C38A" opacity="1.000000" stroke="none" 
	d="
M44.764328,137.678726 
	C45.329174,140.303711 45.894024,142.928680 46.458870,145.553665 
	C45.891029,145.765854 45.323189,145.978043 44.755344,146.190231 
	C42.836052,142.056946 40.916756,137.923676 39.393768,133.353348 
	C41.448162,134.503784 43.106247,136.091248 44.764328,137.678726 
z"/>
<path fill="#E1C295" opacity="1.000000" stroke="none" 
	d="
M52.933189,154.652893 
	C52.395699,155.607956 51.783066,156.219833 50.892044,157.000443 
	C48.735897,154.095978 46.858139,151.022766 44.980381,147.949570 
	C45.674000,147.488068 46.367615,147.026550 47.061234,146.565048 
	C48.993504,149.146606 50.925774,151.728165 52.933189,154.652893 
z"/>
<path fill="#0C0A0F" opacity="1.000000" stroke="none" 
	d="
M74.786667,166.220306 
	C76.749870,165.664078 78.489098,165.334427 80.537857,165.333008 
	C80.247818,168.185791 74.581017,167.637817 77.006149,171.996368 
	C75.577988,171.702576 74.149834,171.408798 72.359558,171.059845 
	C69.034164,167.336365 72.953033,167.541458 74.786667,166.220306 
z"/>
<path fill="#1D1207" opacity="1.000000" stroke="none" 
	d="
M44.829201,137.264465 
	C43.106247,136.091248 41.448162,134.503784 39.421925,132.969345 
	C39.053768,133.022385 38.891335,132.972290 38.761189,132.650665 
	C38.419937,131.603180 38.208828,130.877304 37.997723,130.151443 
	C40.897270,130.194275 43.796818,130.237106 46.867538,130.576935 
	C46.323833,132.866028 45.608955,134.858124 44.829201,137.264465 
z"/>
<path fill="#1D1207" opacity="1.000000" stroke="none" 
	d="
M79.831268,125.833092 
	C76.491211,127.546227 73.151154,129.259354 69.416931,130.969940 
	C69.018227,130.553497 69.013687,130.139587 68.999954,129.415024 
	C71.781448,128.160751 74.572144,127.217140 77.977097,126.086464 
	C79.004662,125.877296 79.417969,125.855194 79.831268,125.833092 
z"/>
<path fill="#0A0A0A" opacity="1.000000" stroke="none" 
	d="
M41.486568,146.445679 
	C40.895687,147.624924 40.134888,148.495819 39.374092,149.366714 
	C38.996170,148.387177 38.618248,147.407654 38.240326,146.428116 
	C39.265770,146.331192 40.291210,146.234253 41.486568,146.445679 
z"/>
<path fill="#1D1207" opacity="1.000000" stroke="none" 
	d="
M57.125626,131.476730 
	C59.403400,130.795517 61.808113,130.448532 64.613495,130.132690 
	C63.032776,133.567596 60.385590,133.833954 57.125626,131.476730 
z"/>
<path fill="#0A0A0A" opacity="1.000000" stroke="none" 
	d="
M37.672325,130.084808 
	C38.208828,130.877304 38.419937,131.603180 38.689484,132.605042 
	C37.735348,132.915512 36.722763,132.949997 35.325417,132.969818 
	C35.266544,132.157700 35.592438,131.360245 35.970932,130.242554 
	C36.464664,129.954300 36.905796,129.986252 37.672325,130.084808 
z"/>
<path fill="#1D1207" opacity="1.000000" stroke="none" 
	d="
M51.264359,131.428345 
	C52.076126,131.170227 53.140369,131.096146 54.600571,131.090118 
	C53.836628,131.309555 52.676727,131.460968 51.264359,131.428345 
z"/>
<path fill="#0C0A0A" opacity="1.000000" stroke="none" 
	d="
M105.421738,165.001373 
	C105.256744,164.542725 105.504021,164.084244 106.333366,163.328201 
	C110.281250,163.024979 113.647064,163.019302 117.291382,163.285873 
	C120.358963,163.511093 123.148026,163.464066 126.314415,163.415649 
	C127.439194,163.329651 128.186646,163.245056 129.380127,163.233612 
	C132.217621,163.245239 134.609100,163.183716 137.357483,163.218811 
	C144.757706,163.705765 145.548233,163.174194 146.850677,156.766479 
	C147.570175,153.226746 148.343262,149.676788 148.696899,146.092438 
	C148.883301,144.203033 148.220840,142.229904 147.941666,140.294571 
	C144.421417,145.729782 143.142166,151.620193 136.550934,153.982849 
	C129.777771,154.597321 123.428200,155.204010 116.616570,155.718994 
	C111.772614,155.703445 107.390717,155.779572 102.574615,155.726746 
	C99.174316,155.629929 96.208221,155.662094 93.072891,155.526260 
	C92.613991,155.215363 92.307678,155.144089 92.001114,154.771637 
	C93.015930,152.261429 94.014336,150.124008 95.315552,147.977692 
	C96.132706,147.366425 96.647057,146.764053 97.415497,145.981720 
	C98.500153,144.399918 99.330734,142.998077 100.454887,141.367966 
	C102.216232,138.203720 103.684013,135.267761 105.412552,132.278595 
	C105.829460,131.934387 105.985619,131.643372 106.419907,131.241730 
	C106.878975,130.778503 107.059906,130.425934 107.201416,130.068359 
	C107.161987,130.063385 107.205070,130.130173 107.524490,130.029556 
	C110.133385,126.744545 112.422852,123.560150 114.712326,120.375755 
	C115.358864,121.297951 116.005409,122.220146 116.656219,123.148415 
	C125.763260,118.337669 132.852432,109.526054 145.355499,111.295799 
	C145.355499,109.094971 145.355499,107.284561 145.151520,104.862122 
	C142.343201,101.093430 136.661392,102.090866 135.006088,105.995308 
	C128.188782,104.288368 123.307152,105.686089 118.517586,110.838875 
	C117.178009,110.043327 115.794479,109.221687 114.172821,108.151489 
	C113.934685,107.902924 114.012428,107.565384 114.036896,107.394073 
	C117.862366,105.274094 121.663353,103.325409 125.724213,101.148430 
	C127.678391,100.263794 129.372711,99.607460 131.778748,98.955765 
	C134.020737,98.379822 136.923294,100.966133 136.990952,97.010216 
	C136.990952,97.010216 137.239120,96.819839 137.663757,96.792160 
	C138.387863,96.566719 138.687332,96.368973 138.986786,96.171219 
	C139.414185,96.069244 139.841568,95.967278 140.872253,96.108604 
	C142.896866,96.422821 144.337311,96.678604 145.736359,96.533981 
	C153.489548,95.732552 161.232651,94.833710 169.272583,94.218170 
	C172.031097,94.360703 174.496246,94.253304 177.304688,94.094452 
	C178.107895,94.082970 178.567825,94.122940 179.184845,94.337112 
	C179.583038,94.720306 179.858078,94.864548 180.468567,94.949692 
	C181.169083,94.913651 181.568130,94.871933 181.967163,94.830215 
	C181.974304,95.024406 181.981445,95.218590 181.740265,96.030029 
	C181.328171,98.448776 181.139816,100.248451 181.004807,102.052109 
	C180.408356,110.020950 179.904312,117.997734 179.202942,125.957199 
	C178.919403,129.174789 180.975067,128.943985 183.001572,129.408737 
	C183.009674,130.903671 183.018082,131.991287 182.998779,133.317612 
	C182.971069,133.556320 182.870819,134.026398 182.662506,134.277344 
	C182.322525,135.378983 182.190857,136.229675 182.040924,137.043488 
	C182.022659,137.006622 182.092880,137.049545 181.733459,137.128632 
	C180.629730,139.617554 179.885437,142.027420 179.139862,144.593872 
	C179.138580,144.750488 178.957458,145.006058 178.752411,145.183243 
	C178.395721,145.685303 178.244080,146.010162 178.077026,146.513641 
	C178.061615,146.692245 177.878708,147.000595 177.697876,147.156479 
	C177.298111,147.555817 177.155548,147.837875 177.117859,148.126617 
	C177.146317,148.094696 177.202515,148.159210 176.824219,148.132050 
	C172.889404,152.035370 168.201309,155.255402 167.955688,161.645264 
	C163.187790,165.614014 158.583206,169.304733 153.669281,173.107544 
	C152.226547,174.250168 151.093155,175.280716 149.647491,176.334351 
	C148.618378,176.597290 147.901550,176.837112 146.821381,177.059860 
	C145.973297,177.031418 145.488541,177.020050 145.002350,176.588409 
	C145.417145,172.241974 143.582932,170.744370 139.745010,170.959793 
	C136.765671,171.127029 133.763763,170.939362 130.774734,170.831055 
	C130.375412,170.816589 129.992798,170.341248 129.437439,169.968613 
	C130.147125,168.838135 130.790619,167.813095 131.697311,166.368790 
	C128.703171,166.602951 126.270889,166.856125 123.832176,166.964645 
	C121.750237,167.057297 119.660889,166.983795 117.574821,166.983795 
	C117.627663,167.326645 117.680496,167.669495 117.733330,168.012360 
	C119.838036,169.126877 121.942741,170.241409 124.611305,171.654526 
	C122.269676,173.676712 120.898750,174.860626 118.979332,176.518204 
	C122.034752,176.912048 124.173233,177.187698 125.066238,177.302795 
	C124.285820,179.838577 123.644867,181.921204 123.002594,184.306091 
	C122.999016,185.011383 122.996750,185.414429 122.994476,185.817474 
	C122.540215,185.898285 122.085938,185.979111 121.294128,186.142273 
	C120.956596,186.224609 121.109909,186.071732 120.968628,185.634644 
	C118.216942,183.800903 115.606529,182.404266 112.996109,181.007629 
	C112.648308,180.471146 112.252693,179.442780 111.959808,179.471252 
	C106.729156,179.979660 105.450668,175.692368 102.539581,171.411163 
	C106.135834,170.122314 109.390442,168.955917 112.645050,167.789520 
	C112.723801,167.384155 112.802551,166.978790 112.881302,166.573441 
	C110.532204,166.049469 108.183113,165.525497 105.421738,165.001373 
M149.805603,159.598190 
	C149.612259,161.169907 149.418900,162.741638 149.225555,164.313354 
	C149.830978,164.250259 150.436401,164.187164 151.041824,164.124069 
	C150.850281,162.600510 150.658752,161.076950 149.805603,159.598190 
z"/>
<path fill="#927A3C" opacity="1.000000" stroke="none" 
	d="
M178.957458,145.006058 
	C178.957458,145.006058 179.138580,144.750488 179.375885,144.305801 
	C180.439743,141.590591 181.266312,139.320068 182.092880,137.049545 
	C182.092880,137.049545 182.022659,137.006622 182.300934,136.828232 
	C182.676407,135.775360 182.773605,134.900879 182.870819,134.026398 
	C182.870819,134.026398 182.971069,133.556320 183.285461,133.094437 
	C183.759781,131.438812 183.919724,130.245087 184.059906,129.046753 
	C184.040146,129.042175 184.067413,129.078781 184.067413,129.078781 
	C184.717209,123.583092 185.564102,118.101357 185.954193,112.587296 
	C186.264542,108.200562 186.016769,103.774361 186.016769,98.697609 
	C192.912308,105.677238 189.520554,136.985519 177.450211,154.830627 
	C176.264633,154.267685 175.609039,153.643600 175.068115,152.700592 
	C175.856033,150.974197 176.529282,149.566696 177.202515,148.159210 
	C177.202515,148.159210 177.146317,148.094696 177.351990,148.019775 
	C177.664673,147.630096 177.771683,147.315338 177.878693,147.000595 
	C177.878708,147.000595 178.061615,146.692245 178.312012,146.360077 
	C178.694077,145.687286 178.825775,145.346664 178.957458,145.006058 
z"/>
<path fill="#947B4B" opacity="1.000000" stroke="none" 
	d="
M174.953445,153.019501 
	C175.609039,153.643600 176.264633,154.267685 177.216034,155.069458 
	C176.431503,156.958405 175.351196,158.669693 174.152008,160.694687 
	C171.253494,163.927902 168.473846,166.847412 165.469803,170.006531 
	C162.755585,172.172287 160.265747,174.098434 157.400513,175.736786 
	C156.009598,174.631134 154.994110,173.813293 153.978607,172.995453 
	C158.583206,169.304733 163.187790,165.614014 168.242767,161.447418 
	C170.779922,158.320862 172.866684,155.670181 174.953445,153.019501 
z"/>
<path fill="#0D0B08" opacity="1.000000" stroke="none" 
	d="
M183.001892,129.001419 
	C180.975067,128.943985 178.919403,129.174789 179.202942,125.957199 
	C179.904312,117.997734 180.408356,110.020950 181.004807,102.052109 
	C181.139816,100.248451 181.328171,98.448776 181.749481,96.321365 
	C182.464111,100.142525 183.100983,104.279388 183.337067,108.439003 
	C183.709183,114.995346 183.811951,121.566971 184.048065,128.605453 
	C184.067413,129.078781 184.040146,129.042175 183.790512,129.030701 
	C183.361206,129.013306 183.181549,129.007355 183.001892,129.001419 
z"/>
<path fill="#957E40" opacity="1.000000" stroke="none" 
	d="
M179.027740,94.162918 
	C178.567825,94.122940 178.107895,94.082970 176.972412,94.035904 
	C175.521744,93.721619 174.746658,93.414429 173.971573,93.107239 
	C174.276657,92.324089 174.581741,91.540932 174.932892,90.445786 
	C177.529297,91.050034 180.082993,91.957680 182.607483,92.940338 
	C182.661423,92.961334 182.379501,93.845154 182.110718,94.578339 
	C181.568130,94.871933 181.169083,94.913651 180.349792,94.724953 
	C179.628937,94.383995 179.328339,94.273453 179.027740,94.162918 
z"/>
<path fill="#1D1207" opacity="1.000000" stroke="none" 
	d="
M37.261887,101.799599 
	C37.147198,101.173660 37.292377,100.344963 37.641113,99.270988 
	C37.737030,99.882751 37.629395,100.739799 37.261887,101.799599 
z"/>
<path fill="#1D1207" opacity="1.000000" stroke="none" 
	d="
M36.876587,106.656700 
	C36.695625,106.428993 36.614323,105.883545 36.703568,105.178696 
	C36.908157,105.459190 36.942200,105.899071 36.876587,106.656700 
z"/>
<path fill="#A3874B" opacity="1.000000" stroke="none" 
	d="
M153.669281,173.107544 
	C154.994110,173.813293 156.009598,174.631134 157.067368,175.824524 
	C155.806198,177.151718 154.502747,178.103363 152.534515,179.011185 
	C151.233063,178.081985 150.596420,177.196625 149.959763,176.311264 
	C151.093155,175.280716 152.226547,174.250168 153.669281,173.107544 
z"/>
<path fill="#B9A579" opacity="1.000000" stroke="none" 
	d="
M149.647491,176.334351 
	C150.596420,177.196625 151.233063,178.081985 152.227905,179.012512 
	C150.308228,180.383362 148.030350,181.709045 145.394455,183.057251 
	C145.322327,181.980225 145.608215,180.880676 146.143127,179.213455 
	C146.656342,178.122833 146.920532,177.599884 147.184723,177.076950 
	C147.901550,176.837112 148.618378,176.597290 149.647491,176.334351 
z"/>
<path fill="#0F0D06" opacity="1.000000" stroke="none" 
	d="
M112.542992,181.006622 
	C115.606529,182.404266 118.216942,183.800903 120.938309,185.530731 
	C118.341888,186.054337 115.634514,186.244766 112.477844,186.478333 
	C105.340500,185.669846 98.652451,184.818222 91.374344,183.626617 
	C87.511986,181.901337 84.239685,180.516037 80.967384,179.130737 
	C78.380447,177.649734 75.793518,176.168747 73.176430,174.344299 
	C74.136749,173.893997 75.658478,173.320816 76.036530,173.751526 
	C80.409065,178.732895 85.211670,176.944778 90.209335,175.104309 
	C91.259422,174.717575 93.157944,175.066238 93.957962,175.823517 
	C99.150444,180.738617 105.484924,181.260849 112.542992,181.006622 
z"/>
<path fill="#E5CB87" opacity="1.000000" stroke="none" 
	d="
M80.989410,179.485687 
	C84.239685,180.516037 87.511986,181.901337 90.950363,183.618408 
	C90.756622,184.701401 90.396805,185.452606 90.010826,186.529602 
	C87.455338,185.821503 84.926010,184.787613 82.164833,183.502930 
	C81.625793,182.114975 81.318611,180.977814 80.989410,179.485687 
z"/>
<path fill="#0B090B" opacity="1.000000" stroke="none" 
	d="
M123.003922,184.003830 
	C123.644867,181.921204 124.285820,179.838577 125.066238,177.302795 
	C124.173233,177.187698 122.034752,176.912048 118.979332,176.518204 
	C120.898750,174.860626 122.269676,173.676712 124.611305,171.654526 
	C121.942741,170.241409 119.838036,169.126877 117.733330,168.012360 
	C117.680496,167.669495 117.627663,167.326645 117.574821,166.983795 
	C119.660889,166.983795 121.750237,167.057297 123.832176,166.964645 
	C126.270889,166.856125 128.703171,166.602951 131.697311,166.368790 
	C130.790619,167.813095 130.147125,168.838135 129.437439,169.968613 
	C129.992798,170.341248 130.375412,170.816589 130.774734,170.831055 
	C133.763763,170.939362 136.765671,171.127029 139.745010,170.959793 
	C143.582932,170.744370 145.417145,172.241974 144.784241,176.796432 
	C144.410065,177.995178 144.252548,178.565598 144.095032,179.136002 
	C144.095032,179.136002 144.068558,179.093506 144.091446,179.104691 
	C138.510941,178.066132 133.959778,179.963852 130.097809,184.395569 
	C128.930954,184.851913 127.867867,184.995392 126.349304,184.821747 
	C124.930534,184.337692 123.967224,184.170761 123.003922,184.003830 
z"/>
<path fill="#0F0D06" opacity="1.000000" stroke="none" 
	d="
M123.002602,184.306091 
	C123.967224,184.170761 124.930534,184.337692 125.947235,184.795578 
	C125.211159,185.359116 124.421700,185.631683 123.313354,185.860870 
	C122.996750,185.414429 122.999016,185.011383 123.002602,184.306091 
z"/>
<path fill="#151009" opacity="1.000000" stroke="none" 
	d="
M144.414444,179.102051 
	C144.252548,178.565598 144.410065,177.995178 144.785675,177.216736 
	C145.488541,177.020050 145.973297,177.031418 146.821381,177.059860 
	C146.920532,177.599884 146.656342,178.122833 146.205048,178.876465 
	C145.589905,179.094147 145.161865,179.081131 144.414444,179.102051 
z"/>
<path fill="#1D1207" opacity="1.000000" stroke="none" 
	d="
M136.670120,97.001389 
	C136.923294,100.966133 134.020737,98.379822 132.120605,98.926529 
	C131.750763,98.892670 131.924255,98.528793 132.000885,98.342270 
	C132.914444,97.958076 133.751389,97.760399 134.833435,97.346970 
	C135.502121,97.084999 135.925705,97.038788 136.670120,97.001389 
z"/>
<path fill="#D6CBB9" opacity="1.000000" stroke="none" 
	d="
M130.010834,82.738403 
	C129.658295,82.796974 129.566193,82.536804 129.868225,82.102348 
	C129.997406,82.001007 130.006332,82.492599 130.010834,82.738403 
z"/>
<path fill="#1D1207" opacity="1.000000" stroke="none" 
	d="
M168.979218,93.968224 
	C161.232651,94.833710 153.489548,95.732552 145.736359,96.533981 
	C144.337311,96.678604 142.896866,96.422821 141.201141,96.081070 
	C144.661896,94.815796 148.397034,93.821350 152.531448,92.747360 
	C158.169510,92.527100 163.408295,92.386383 169.234161,92.403793 
	C169.821243,92.561905 170.139526,92.920616 169.918274,93.063431 
	C169.457764,93.460236 169.218491,93.714226 168.979218,93.968224 
z"/>
<path fill="#1D1207" opacity="1.000000" stroke="none" 
	d="
M138.699860,96.158104 
	C138.687332,96.368973 138.387863,96.566719 137.819382,96.807564 
	C137.837891,96.615433 138.125412,96.380203 138.699860,96.158104 
z"/>
<path fill="#E1C295" opacity="1.000000" stroke="none" 
	d="
M106.866867,110.845230 
	C104.847916,112.519249 102.532616,113.965927 99.641602,115.164642 
	C96.713432,114.011612 94.360970,113.106544 92.008514,112.201477 
	C94.347130,110.788185 96.685745,109.374878 99.362411,107.906952 
	C101.990479,108.774170 104.280495,109.696022 106.866867,110.845230 
z"/>
<path fill="#0D0B08" opacity="1.000000" stroke="none" 
	d="
M169.272583,94.218170 
	C169.218491,93.714226 169.457764,93.460236 170.117538,92.976364 
	C170.538040,92.746498 170.926315,92.549355 170.926315,92.549355 
	C171.687088,92.688644 172.447845,92.827934 173.590088,93.037231 
	C174.746658,93.414429 175.521744,93.721619 176.629120,94.087357 
	C174.496246,94.253304 172.031097,94.360703 169.272583,94.218170 
z"/>
<path fill="#957E40" opacity="1.000000" stroke="none" 
	d="
M170.714813,92.418205 
	C170.926315,92.549355 170.538040,92.746498 170.338776,92.833557 
	C170.139526,92.920616 169.821243,92.561905 169.667419,92.376320 
	C169.843491,92.222839 170.173401,92.254944 170.714813,92.418205 
z"/>
<path fill="#ECBD68" opacity="1.000000" stroke="none" 
	d="
M87.298111,72.824364 
	C82.965668,70.805710 81.156929,73.794106 79.003220,76.562515 
	C74.969704,76.933266 75.870781,73.968155 76.163300,71.945351 
	C76.545631,69.301544 76.727280,66.062195 80.709877,66.025169 
	C84.497841,65.989952 88.286194,65.995811 92.541397,65.971237 
	C94.115868,66.112206 95.223305,66.265541 96.330742,66.418877 
	C96.537941,66.813263 96.745140,67.207649 96.952347,67.602028 
	C95.203285,68.703995 93.454224,69.805969 91.061676,71.007614 
	C89.936020,71.660034 89.453842,72.212776 88.971664,72.765518 
	C88.524925,72.800056 88.078186,72.834602 87.298111,72.824364 
z"/>
<path fill="#E3B775" opacity="1.000000" stroke="none" 
	d="
M91.678856,112.264755 
	C94.360970,113.106544 96.713432,114.011612 99.311615,115.259964 
	C99.557343,115.603249 99.486633,115.590797 99.171684,115.553741 
	C98.607979,115.779900 98.359222,116.043106 98.110466,116.306320 
	C98.110466,116.306320 98.116020,116.155174 97.846817,116.175201 
	C97.085007,116.607910 96.592407,117.020584 96.099800,117.433273 
	C94.251976,118.541054 92.404144,119.648842 89.991806,120.920631 
	C89.181862,121.349602 88.936409,121.614563 88.690964,121.879532 
	C88.690964,121.879532 88.294159,121.907837 87.871124,122.047997 
	C87.184959,122.421227 86.921829,122.654297 86.658699,122.887375 
	C86.658699,122.887375 86.280212,122.878677 85.875084,123.005203 
	C85.223015,123.358009 84.976067,123.584297 84.729126,123.810577 
	C84.729126,123.810577 84.816048,123.820320 84.465546,123.816002 
	C82.691063,124.495049 81.267090,125.178406 79.843117,125.861771 
	C79.843117,125.861771 79.850906,125.849785 79.841087,125.841438 
	C79.417969,125.855194 79.004662,125.877296 78.279694,125.882721 
	C76.278015,124.665276 74.587990,123.464523 72.671600,121.956497 
	C72.445244,121.649216 72.535423,121.659317 72.829376,121.659294 
	C73.408562,121.464317 73.693794,121.269356 73.979019,121.074394 
	C73.979019,121.074394 74.258705,120.847282 74.799347,120.856247 
	C75.940231,120.499275 76.540466,120.133347 77.140701,119.767410 
	C79.698563,118.448746 82.256432,117.130081 85.031036,115.550400 
	C87.281578,114.302269 89.315392,113.315147 91.678856,112.264755 
z"/>
<path fill="#EFD686" opacity="1.000000" stroke="none" 
	d="
M76.780045,119.818024 
	C76.540466,120.133347 75.940231,120.499275 74.978638,120.873672 
	C75.217987,120.544304 75.818695,120.206467 76.780045,119.818024 
z"/>
<path fill="#EFD686" opacity="1.000000" stroke="none" 
	d="
M73.699440,121.071823 
	C73.693794,121.269356 73.408562,121.464317 72.857254,121.695084 
	C72.867401,121.510353 73.143631,121.289803 73.699440,121.071823 
z"/>
<path fill="#DCC07E" opacity="1.000000" stroke="none" 
	d="
M89.303795,72.878571 
	C89.453842,72.212776 89.936020,71.660034 90.710655,71.065979 
	C91.004158,71.431419 91.005211,71.838173 91.014847,72.550125 
	C90.560928,72.900757 90.098427,72.946198 89.303795,72.878571 
z"/>
<path fill="#0D0C0A" opacity="1.000000" stroke="none" 
	d="
M80.211411,76.902802 
	C80.037613,76.648956 80.193512,76.390686 80.733231,76.228851 
	C80.815247,76.465553 80.623268,76.656586 80.211411,76.902802 
z"/>
<path fill="#DAD1C1" opacity="1.000000" stroke="none" 
	d="
M127.998032,73.997345 
	C127.996071,73.994690 128.210266,73.656067 128.210266,73.656067 
	C128.210266,73.656067 128.196671,73.912148 128.101074,73.958054 
	C128.005493,74.003967 128.000000,74.000000 127.998032,73.997345 
z"/>
<path fill="#CFC2A8" opacity="1.000000" stroke="none" 
	d="
M127.122856,72.043076 
	C127.024437,71.987305 127.028542,71.795700 127.052322,71.317932 
	C127.350815,71.291222 127.401947,71.583046 127.122856,72.043076 
z"/>
<path fill="#F8DE8B" opacity="1.000000" stroke="none" 
	d="
M80.993057,161.992477 
	C78.853172,161.122635 76.713280,160.252777 74.642769,159.411133 
	C75.316277,156.665466 75.967682,154.009918 76.539368,150.966095 
	C76.459656,150.577820 76.476562,150.581619 76.791077,150.507690 
	C77.327782,149.872879 77.549980,149.311996 77.772179,148.751129 
	C77.772179,148.751129 77.864075,148.871948 78.176949,148.791016 
	C78.931335,147.634079 79.372856,146.558044 79.814377,145.482025 
	C81.503433,143.204041 83.192482,140.926056 85.364876,138.328979 
	C86.553497,137.993713 87.258766,137.977539 88.067093,138.190857 
	C87.782898,139.614487 87.395660,140.808609 86.629959,142.125748 
	C86.289963,148.146698 86.279800,154.046295 86.479271,159.938797 
	C86.492188,160.320465 88.118660,160.647522 88.989731,161.240570 
	C88.984917,161.481155 88.968124,161.962128 88.948914,162.163513 
	C88.929710,162.364883 88.954300,162.768692 88.954300,162.768677 
	C86.609779,162.808884 84.265259,162.849075 81.486450,162.633118 
	C81.052162,162.376984 80.993057,161.992477 80.993057,161.992477 
z"/>
<path fill="#E0D9CA" opacity="1.000000" stroke="none" 
	d="
M114.747704,120.076637 
	C112.422852,123.560150 110.133385,126.744545 107.473473,129.647308 
	C107.778168,127.097168 108.453300,124.828659 109.184151,122.372955 
	C108.234871,121.635353 107.213791,120.841972 106.192719,120.048592 
	C108.897911,118.377007 111.603096,116.705414 114.812698,115.259048 
	C115.651848,116.102386 115.986595,116.720497 116.321342,117.338600 
	C115.808586,118.151573 115.295837,118.964546 114.747704,120.076637 
z"/>
<path fill="#E3B775" opacity="1.000000" stroke="none" 
	d="
M100.161316,141.596237 
	C99.330734,142.998077 98.500153,144.399918 97.337799,145.904465 
	C97.006027,146.007187 96.850479,145.852829 96.892365,145.437408 
	C97.157234,143.238846 97.795151,141.387939 97.517349,139.686569 
	C96.928001,136.077194 95.861618,132.545700 94.850616,128.778961 
	C94.480995,128.334625 94.219101,128.136551 93.924713,127.981415 
	C94.957481,127.297501 95.990250,126.613586 97.711105,125.966110 
	C101.336609,127.142914 102.270721,128.581528 100.909798,132.029495 
	C99.787140,134.873764 100.347023,138.382141 100.161316,141.596237 
z"/>
<path fill="#E5CB87" opacity="1.000000" stroke="none" 
	d="
M100.454887,141.367966 
	C100.347023,138.382141 99.787140,134.873764 100.909798,132.029495 
	C102.270721,128.581528 101.336609,127.142914 98.025955,125.935463 
	C99.172173,124.914093 100.691620,123.959801 102.683731,123.205154 
	C103.821526,126.380455 104.486656,129.356125 105.151794,132.331787 
	C103.684013,135.267761 102.216232,138.203720 100.454887,141.367966 
z"/>
<path fill="#E7DA9D" opacity="1.000000" stroke="none" 
	d="
M83.920868,136.937225 
	C79.222801,138.063553 74.524734,139.189880 69.826668,140.316208 
	C69.671722,139.691559 69.516777,139.066910 69.361824,138.442245 
	C74.308006,136.610519 79.254181,134.778793 84.552353,133.282166 
	C84.576523,134.723907 84.248695,135.830566 83.920868,136.937225 
z"/>
<path fill="#E0CFB9" opacity="1.000000" stroke="none" 
	d="
M105.412552,132.278595 
	C104.486656,129.356125 103.821526,126.380455 103.010178,123.096672 
	C103.745461,121.916245 104.626945,121.043930 105.850578,120.110107 
	C107.213791,120.841972 108.234871,121.635353 109.184151,122.372955 
	C108.453300,124.828659 107.778168,127.097168 107.154053,129.747925 
	C107.205070,130.130173 107.161987,130.063385 106.957886,130.226273 
	C106.549789,130.710236 106.345787,131.031296 106.141785,131.352356 
	C105.985619,131.643372 105.829460,131.934387 105.412552,132.278595 
z"/>
<path fill="#E5CB87" opacity="1.000000" stroke="none" 
	d="
M84.150055,137.083847 
	C84.248695,135.830566 84.576523,134.723907 84.927200,133.272034 
	C87.318146,131.585663 89.686249,130.244507 92.465744,128.891846 
	C92.877144,128.880356 93.034676,129.038300 92.973770,129.383957 
	C92.260818,131.474258 91.608788,133.218918 90.668304,135.106308 
	C89.574585,136.153168 88.769318,137.057266 87.964043,137.961365 
	C87.258766,137.977539 86.553497,137.993713 85.495491,138.004242 
	C84.888252,137.742569 84.633743,137.486526 84.150055,137.083847 
z"/>
<path fill="#C8B690" opacity="1.000000" stroke="none" 
	d="
M116.681580,117.265442 
	C115.986595,116.720497 115.651848,116.102386 115.161072,115.168152 
	C118.882431,112.966644 122.759811,111.081268 126.637199,109.195892 
	C127.036606,109.949425 127.436012,110.702957 127.835419,111.456497 
	C124.237549,113.368423 120.639687,115.280350 116.681580,117.265442 
z"/>
<path fill="#0C0A0F" opacity="1.000000" stroke="none" 
	d="
M135.407104,105.929306 
	C136.661392,102.090866 142.343201,101.093430 144.968262,104.630699 
	C141.928726,105.295296 138.868423,105.579292 135.407104,105.929306 
z"/>
<path fill="#1D1207" opacity="1.000000" stroke="none" 
	d="
M80.271156,125.908142 
	C81.267090,125.178406 82.691063,124.495049 84.455688,123.773392 
	C84.849274,124.234436 84.902206,124.733772 84.970673,125.609077 
	C83.557198,125.974876 82.128197,125.964699 80.271156,125.908142 
z"/>
<path fill="#E0D298" opacity="1.000000" stroke="none" 
	d="
M79.556046,145.692291 
	C79.372856,146.558044 78.931335,147.634079 78.110016,148.755249 
	C78.252716,147.834442 78.775215,146.868500 79.556046,145.692291 
z"/>
<path fill="#E1C295" opacity="1.000000" stroke="none" 
	d="
M96.410217,117.347382 
	C96.592407,117.020584 97.085007,116.607910 97.921173,116.189041 
	C97.750031,116.542404 97.235336,116.901955 96.410217,117.347382 
z"/>
<path fill="#E0D298" opacity="1.000000" stroke="none" 
	d="
M77.521851,148.893433 
	C77.549980,149.311996 77.327782,149.872879 76.790802,150.498581 
	C76.741188,150.054184 77.006355,149.544952 77.521851,148.893433 
z"/>
<path fill="#E5CB87" opacity="1.000000" stroke="none" 
	d="
M93.672760,128.011810 
	C94.219101,128.136551 94.480995,128.334625 94.524727,128.789856 
	C93.904251,129.015472 93.469467,129.026886 93.034676,129.038300 
	C93.034676,129.038300 92.877144,128.880356 92.797974,128.801804 
	C92.952797,128.496246 93.186798,128.269226 93.672760,128.011810 
z"/>
<path fill="#E1C295" opacity="1.000000" stroke="none" 
	d="
M98.368790,116.259087 
	C98.359222,116.043106 98.607979,115.779900 99.138130,115.540970 
	C99.155388,115.780792 98.891251,115.996323 98.368790,116.259087 
z"/>
<path fill="#1D1207" opacity="1.000000" stroke="none" 
	d="
M88.939606,121.807083 
	C88.936409,121.614563 89.181862,121.349602 89.706306,121.085678 
	C89.719620,121.302689 89.453941,121.518661 88.939606,121.807083 
z"/>
<path fill="#1D1207" opacity="1.000000" stroke="none" 
	d="
M86.910980,122.829063 
	C86.921829,122.654297 87.184959,122.421227 87.715958,122.172440 
	C87.710297,122.361397 87.436775,122.566071 86.910980,122.829063 
z"/>
<path fill="#1D1207" opacity="1.000000" stroke="none" 
	d="
M84.973030,123.765648 
	C84.976067,123.584297 85.223015,123.358009 85.729843,123.126602 
	C85.793846,123.400803 85.536247,123.600548 84.973030,123.765648 
z"/>
<path fill="#0C0A0F" opacity="1.000000" stroke="none" 
	d="
M76.489304,145.482452 
	C76.515701,145.471085 76.462914,145.493835 76.489304,145.482452 
z"/>
<path fill="#0C0A0A" opacity="1.000000" stroke="none" 
	d="
M77.432732,172.001862 
	C74.581017,167.637817 80.247818,168.185791 80.923111,165.332764 
	C85.102043,165.136688 89.207214,165.227432 93.307747,165.417847 
	C95.601006,165.524338 97.886581,165.796188 100.587967,165.997971 
	C97.735420,167.000153 94.524940,168.301682 91.188370,168.899323 
	C88.525581,169.376297 85.709183,168.995621 82.960960,168.995621 
	C82.923500,169.508057 82.886032,170.020477 82.848564,170.532913 
	C86.599869,170.818344 90.351181,171.103775 94.102486,171.389221 
	C94.060516,171.995621 94.018547,172.602005 93.976578,173.208405 
	C88.604156,172.808060 83.231735,172.407715 77.432732,172.001862 
z"/>
<path fill="#E0D9CA" opacity="1.000000" stroke="none" 
	d="
M103.008827,155.855713 
	C107.390717,155.779572 111.772614,155.703445 116.565575,156.068451 
	C117.255226,157.335968 117.533806,158.162338 117.880943,159.341919 
	C117.637291,160.801285 117.325081,161.907440 117.012878,163.013611 
	C113.647064,163.019302 110.281250,163.024979 106.463135,163.101761 
	C105.839035,163.115402 105.667252,163.057953 105.324905,162.591904 
	C108.699928,158.629379 105.192627,157.466934 103.008827,155.855713 
z"/>
<path fill="#E0D298" opacity="1.000000" stroke="none" 
	d="
M102.574615,155.726746 
	C105.192627,157.466934 108.699928,158.629379 105.067650,162.504471 
	C103.909492,162.870377 102.838036,162.915115 101.244263,162.673370 
	C100.476059,161.937714 100.230194,161.488556 100.295258,160.953888 
	C100.060326,159.929443 99.725739,158.479584 98.928047,158.149750 
	C96.751457,157.249786 94.379440,156.822495 92.392487,156.120819 
	C92.880806,155.920532 93.061470,155.807388 93.242134,155.694260 
	C96.208221,155.662094 99.174316,155.629929 102.574615,155.726746 
z"/>
<path fill="#D0B87A" opacity="1.000000" stroke="none" 
	d="
M99.984329,161.039383 
	C100.230194,161.488556 100.476059,161.937714 100.844849,162.611237 
	C97.266335,162.878235 93.564911,162.920898 89.408890,162.866135 
	C88.954300,162.768692 88.929710,162.364883 89.392113,162.174713 
	C93.231117,161.669495 96.607727,161.354431 99.984329,161.039383 
z"/>
<path fill="#D0B87A" opacity="1.000000" stroke="none" 
	d="
M80.802856,162.090057 
	C80.993057,161.992477 81.052162,162.376984 81.051041,162.571503 
	C80.875099,162.818192 80.700272,162.870392 80.262466,162.847229 
	C80.152092,162.522766 80.356483,162.328018 80.802856,162.090057 
z"/>
<path fill="#151009" opacity="1.000000" stroke="none" 
	d="
M81.485252,128.508148 
	C81.475197,128.483963 81.495308,128.532333 81.485252,128.508148 
z"/>
<path fill="#977738" opacity="1.000000" stroke="none" 
	d="
M136.974548,153.975067 
	C143.142166,151.620193 144.421417,145.729782 147.941666,140.294571 
	C148.220840,142.229904 148.883301,144.203033 148.696899,146.092438 
	C148.343262,149.676788 147.570175,153.226746 146.850677,156.766479 
	C145.548233,163.174194 144.757706,163.705765 137.310150,162.862854 
	C136.965225,160.570465 137.024567,158.730621 137.194641,156.811508 
	C137.449356,156.458221 137.380173,156.235062 137.069077,156.021088 
	C137.040344,155.979401 136.982422,155.896347 136.986755,155.576080 
	C136.985565,154.828903 136.980057,154.401993 136.974548,153.975067 
z"/>
<path fill="#F0C46F" opacity="1.000000" stroke="none" 
	d="
M100.295258,160.953888 
	C96.607727,161.354431 93.231117,161.669495 89.411316,161.973328 
	C88.968124,161.962128 88.984917,161.481155 89.273697,161.072937 
	C89.570366,157.914017 89.906937,155.114166 89.504608,152.424850 
	C88.978043,148.905121 87.867668,145.472717 87.008423,142.002747 
	C87.395660,140.808609 87.782898,139.614487 88.067093,138.190857 
	C88.769318,137.057266 89.574585,136.153168 91.011383,135.118332 
	C92.404419,135.484192 93.783623,135.933899 93.825462,136.485107 
	C94.065956,139.652939 93.989502,142.844849 94.130707,146.280182 
	C94.498169,147.016739 94.755455,147.501663 95.012741,147.986603 
	C94.014336,150.124008 93.015930,152.261429 91.941750,155.044739 
	C91.938934,155.863098 92.011887,156.035522 92.084839,156.207947 
	C94.379440,156.822495 96.751457,157.249786 98.928047,158.149750 
	C99.725739,158.479584 100.060326,159.929443 100.295258,160.953888 
M91.493713,145.540649 
	C91.493713,145.540649 91.468491,145.484314 91.493713,145.540649 
z"/>
<path fill="#8D784C" opacity="1.000000" stroke="none" 
	d="
M136.550934,153.982849 
	C136.980057,154.401993 136.985565,154.828903 136.623489,155.660675 
	C133.356812,157.125595 130.457733,158.185654 127.422272,159.295578 
	C128.006210,160.788361 128.470154,161.974411 128.934113,163.160461 
	C128.186646,163.245056 127.439194,163.329651 126.157715,163.086945 
	C123.019920,161.502670 120.416153,160.245697 117.812386,158.988724 
	C117.533806,158.162338 117.255226,157.335968 117.027641,156.160141 
	C123.428200,155.204010 129.777771,154.597321 136.550934,153.982849 
z"/>
<path fill="#A3874B" opacity="1.000000" stroke="none" 
	d="
M129.380127,163.233612 
	C128.470154,161.974411 128.006210,160.788361 127.422272,159.295578 
	C130.457733,158.185654 133.356812,157.125595 136.619156,155.980927 
	C136.982422,155.896347 137.040344,155.979401 137.056335,156.227386 
	C137.072327,156.475372 137.083908,156.890778 137.083908,156.890778 
	C137.024567,158.730621 136.965225,160.570465 136.953217,162.766251 
	C134.609100,163.183716 132.217621,163.245239 129.380127,163.233612 
z"/>
<path fill="#180A04" opacity="1.000000" stroke="none" 
	d="
M175.068115,152.700592 
	C172.866684,155.670181 170.779922,158.320862 168.406067,161.169373 
	C168.201309,155.255402 172.889404,152.035370 176.824219,148.132050 
	C176.529282,149.566696 175.856033,150.974197 175.068115,152.700592 
z"/>
<path fill="#493D27" opacity="1.000000" stroke="none" 
	d="
M117.880943,159.341919 
	C120.416153,160.245697 123.019920,161.502670 125.780396,163.088348 
	C123.148026,163.464066 120.358963,163.511093 117.291382,163.285858 
	C117.325081,161.907440 117.637291,160.801285 117.880943,159.341919 
z"/>
<path fill="#0C0A0F" opacity="1.000000" stroke="none" 
	d="
M150.136414,159.575790 
	C150.658752,161.076950 150.850281,162.600510 151.041824,164.124069 
	C150.436401,164.187164 149.830978,164.250259 149.225555,164.313354 
	C149.418900,162.741638 149.612259,161.169907 150.136414,159.575790 
z"/>
<path fill="#180A04" opacity="1.000000" stroke="none" 
	d="
M181.733459,137.128632 
	C181.266312,139.320068 180.439743,141.590591 179.377167,144.149200 
	C179.885437,142.027420 180.629730,139.617554 181.733459,137.128632 
z"/>
<path fill="#E3B775" opacity="1.000000" stroke="none" 
	d="
M95.315552,147.977692 
	C94.755455,147.501663 94.498169,147.016739 94.485939,146.271057 
	C95.437485,145.957809 96.143982,145.905319 96.850479,145.852829 
	C96.850479,145.852829 97.006027,146.007187 97.083725,146.084442 
	C96.647057,146.764053 96.132706,147.366425 95.315552,147.977692 
z"/>
<path fill="#180A04" opacity="1.000000" stroke="none" 
	d="
M183.001572,129.408737 
	C183.181549,129.007355 183.361206,129.013306 183.810272,129.035294 
	C183.919724,130.245087 183.759781,131.438812 183.313171,132.855728 
	C183.018082,131.991287 183.009674,130.903671 183.001572,129.408737 
z"/>
<path fill="#180A04" opacity="1.000000" stroke="none" 
	d="
M182.662506,134.277344 
	C182.773605,134.900879 182.676407,135.775360 182.319183,136.865112 
	C182.190857,136.229675 182.322525,135.378983 182.662506,134.277344 
z"/>
<path fill="#0D0B08" opacity="1.000000" stroke="none" 
	d="
M179.184845,94.337112 
	C179.328339,94.273453 179.628937,94.383995 180.048309,94.719284 
	C179.858078,94.864548 179.583038,94.720306 179.184845,94.337112 
z"/>
<path fill="#E0D9CA" opacity="1.000000" stroke="none" 
	d="
M106.419914,131.241730 
	C106.345787,131.031296 106.549789,130.710236 106.997314,130.231262 
	C107.059906,130.425934 106.878975,130.778503 106.419914,131.241730 
z"/>
<path fill="#180A04" opacity="1.000000" stroke="none" 
	d="
M178.752411,145.183243 
	C178.825775,145.346664 178.694077,145.687286 178.327423,146.181458 
	C178.244080,146.010162 178.395721,145.685303 178.752411,145.183243 
z"/>
<path fill="#180A04" opacity="1.000000" stroke="none" 
	d="
M177.697876,147.156479 
	C177.771683,147.315338 177.664673,147.630096 177.323517,148.051697 
	C177.155548,147.837875 177.298111,147.555817 177.697876,147.156479 
z"/>
<path fill="#8D784C" opacity="1.000000" stroke="none" 
	d="
M92.392487,156.120819 
	C92.011887,156.035522 91.938934,155.863098 91.925339,155.417557 
	C92.307678,155.144089 92.613991,155.215363 93.072891,155.526260 
	C93.061470,155.807388 92.880806,155.920532 92.392487,156.120819 
z"/>
<path fill="#F9D079" opacity="1.000000" stroke="none" 
	d="
M86.629959,142.125748 
	C87.867668,145.472717 88.978043,148.905121 89.504608,152.424850 
	C89.906937,155.114166 89.570366,157.914017 89.278511,160.832352 
	C88.118660,160.647522 86.492188,160.320465 86.479271,159.938797 
	C86.279800,154.046295 86.289963,148.146698 86.629959,142.125748 
z"/>
<path fill="#ECBD68" opacity="1.000000" stroke="none" 
	d="
M96.892365,145.437408 
	C96.143982,145.905319 95.437485,145.957809 94.375763,146.019440 
	C93.989502,142.844849 94.065956,139.652939 93.825462,136.485107 
	C93.783623,135.933899 92.404419,135.484192 91.299835,134.975586 
	C91.608788,133.218918 92.260818,131.474258 92.973770,129.383957 
	C93.469467,129.026886 93.904251,129.015472 94.664932,128.993164 
	C95.861618,132.545700 96.928001,136.077194 97.517349,139.686569 
	C97.795151,141.387939 97.157234,143.238846 96.892365,145.437408 
z"/>
<path fill="#8D784C" opacity="1.000000" stroke="none" 
	d="
M137.194641,156.811508 
	C137.083908,156.890778 137.072327,156.475372 137.085068,156.269073 
	C137.380173,156.235062 137.449356,156.458221 137.194641,156.811508 
z"/>
<path fill="#ECBD68" opacity="1.000000" stroke="none" 
	d="
M91.481102,145.512482 
	C91.468491,145.484314 91.493713,145.540649 91.481102,145.512482 
z"/>
</svg>